<svg viewBox="0 0 1579 474" version="1.1" xmlns="http://www.w3.org/2000/svg" xmlns:xlink="http://www.w3.org/1999/xlink">
        <linearGradient x1="50%" y1="0%" x2="50%" y2="100%" id="linearGradient-1">
            <stop stop-color="#29E84D" stop-opacity="0.36939538" offset="0%"></stop>
            <stop stop-color="#28E74D" stop-opacity="0" offset="100%"></stop>
        </linearGradient>
        <circle id="path-2" cx="928.5" cy="87.5" r="3.5"></circle>
        <path d="M45.5147186,6 L51,0.514718626 L56.4852814,6 L91.5,6 C97.8512746,6 103,11.1487254 103,17.5 C103,23.8512746 97.8512746,29 91.5,29 L11.5,29 C5.14872538,29 7.77806814e-16,23.8512746 0,17.5 C-7.77806814e-16,11.1487254 5.14872538,6 11.5,6 L45.5147186,6 Z" id="path-3"></path>
        <filter x="-16.0%" y="-47.4%" width="132.0%" height="215.8%" filterUnits="objectBoundingBox" id="filter-4">
            <feOffset dx="0" dy="3" in="SourceAlpha" result="shadowOffsetOuter1"></feOffset>
            <feGaussianBlur stdDeviation="5" in="shadowOffsetOuter1" result="shadowBlurOuter1"></feGaussianBlur>
            <feColorMatrix values="0 0 0 0 0.580392157   0 0 0 0 0.647058824   0 0 0 0 0.705882353  0 0 0 0.14 0" type="matrix" in="shadowBlurOuter1"></feColorMatrix>
        </filter>
    </defs>
    <g id="2560px" stroke="none" stroke-width="1" fill="none" fill-rule="evenodd">
        <g id="Charts---2560-x-1440" transform="translate(-329.000000, -143.000000)">
            <g id="CENTER" transform="translate(329.000000, 67.000000)">
                <g id="Chart" transform="translate(-152.000000, 42.000000)">
                    <g id="chart" transform="translate(0.000000, 37.000000)">
                        <path d="M0.154109299,243.979797 L8.54703928,259.110327 L39.8297783,291.262703 L71.1125173,346.110875 L101.632263,317.741131 L163.434747,337.915171 L194.717486,306.393233 L226.000225,196.696891 L255.756977,204.262156 L286.276722,177.153289 L317.559461,170.848902 L348.079207,172.109779 L411.407678,182.196799 L441.927424,194.805574 L473.973156,184.718554 L504.492902,185.979432 L534.249653,112.218098 L564.769399,64.9351914 L596.815131,32.7828151 L626.571883,25.2175501 L658.617616,0 L688.374368,10.7174588 L719.657107,4.41307126 L752.465833,27.1088663 L779.17061,42.2393964 L812.74233,57.3699264 L843.262075,54.2177327 L873.781821,75.0222115 L904.301566,86.370109 C912.38499,89.6194439 923.066901,90.0397364 936.347299,87.6309865 C949.627696,85.2222366 959.800945,81.0193116 966.867044,75.0222115 L998.149783,73.761334 L1029.43252,69.3482627 L1061.47825,57.3699264 L1091.23501,31.5219376 L1123.28074,43.5002739 L1153.80048,39.0872026 L1214.83998,15.7609688 L1245.35972,42.2393964 L1306.39921,223.175318 L1338.44494,205.523033 L1370.49068,190.392503 L1400.24743,216.870931 L1431.53017,242.718919 L1461.28692,234.523216 L1493.33265,344.219558 L1524.61539,351.154385 L1555.89813,353.045701 L1585.65488,349.263069 L1616.17463,336.654293 L1646.69437,327.197712 L1677.97711,334.132538 L1710.02284,320.262886 L1710.02284,450 L0,450 L0.154109299,243.979797 Z" id="Path-3" fill="url(#linearGradient-1)" opacity="0.400000006"></path>
                        <path d="M314.24703,172.609375 L1709.46024,172.609375" id="Line-2" stroke="#A7A7A7" opacity="0.200000003" stroke-linecap="square"></path>
                        <path d="M314.24703,317.109375 L1709.46024,317.109375" id="Line-2" stroke="#A7A7A7" opacity="0.200000003" stroke-linecap="square"></path>
                        <polyline id="Path-3" stroke="#1FCE43" stroke-width="4" stroke-linecap="round" points="2.93146773 243.926618 11.3059686 259.05385 42.5200172 291.199219 73.7340659 346.035435 104.186796 317.671875 165.853575 337.841518 197.067624 306.326451 228.281673 196.654018 257.973085 204.217634 288.425815 177.114676 319.639864 170.811663 350.092594 172.072266 413.28201 182.157087 443.73474 194.763114 475.710107 184.678292 506.162838 185.938895 535.85425 112.193638 566.30698 64.9210379 598.282347 32.7756696 627.973759 25.2120536 659.949126 0 689.640538 10.7151228 720.854587 4.41210938 753.591272 27.1029576 780.237411 42.2301897 813.735415 57.3574219 844.188145 54.2059152 874.640875 75.0058594 905.093606 86.3512835 937.068973 87.6118862 967.521703 75.0058594 998.735752 73.7452567 1029.9498 69.3331473 1061.92517 57.3574219 1091.61658 31.515067 1123.59195 43.4907924 1154.04468 39.078683 1214.95014 15.7575335 1245.40287 42.2301897 1306.30833 223.126674 1338.2837 205.478237 1370.25906 190.351004 1399.95047 216.823661 1431.16452 242.666016 1460.85594 234.472098 1492.8313 344.144531 1524.04535 351.077846 1555.2594 352.96875 1584.95081 349.186942 1615.40354 336.580915 1645.85627 327.126395 1677.07032 334.05971 1709.04569 320.19308"></polyline>
                        <rect id="Rectangle-15" fill="#8384AB" opacity="0.663666214" x="927" y="88" width="1" height="328"></rect>
                        <g id="Oval-2" fill-rule="nonzero">
                            <use fill="#31EDAB" fill-rule="evenodd" xlink:href="#path-2"></use>
                            <circle stroke="#FFFFFF" stroke-width="2" cx="928.5" cy="87.5" r="4.5"></circle>
                        </g>
                        <g id="Group-14" transform="translate(877.000000, 92.000000)">
                            <g id="Combined-Shape">
                                <use fill="black" fill-opacity="1" filter="url(#filter-4)" xlink:href="#path-3"></use>
                                <use fill="#FFFFFF" fill-rule="evenodd" xlink:href="#path-3"></use>
                            </g>
                            <text id="0.001324000" font-family="ProximaNova" font-size="11" font-weight="normal" letter-spacing="0.846153855" fill="#0D105B">
                                <tspan x="12.0866538" y="21">0.001324000</tspan>
                            </text>
                        </g>
                        <g id="Group-15" transform="translate(863.000000, 415.000000)">
                            <path d="M11.5,0 L119.5,0 C125.851275,-1.16671022e-15 131,5.14872538 131,11.5 L131,11.5 C131,17.8512746 125.851275,23 119.5,23 L11.5,23 C5.14872538,23 7.77806814e-16,17.8512746 0,11.5 L0,11.5 C-7.77806814e-16,5.14872538 5.14872538,1.16671022e-15 11.5,0 Z" id="Rectangle-12-Copy" fill="#8384AB"></path>
                            <text id="08.03.2018-@-3:30-AM" font-family="ProximaNova" font-size="9" font-weight="normal" letter-spacing="0.692307711" fill="#FFFFFF">
                                <tspan x="10.5794229" y="15">08.03.2018 @ 3:30 AM</tspan>
                            </text>
                        </g>
                        <g id="Stacked-Group" transform="translate(135.000000, 459.000000)" fill="#BDC3C7" fill-opacity="0.502604167" font-family="DIN Pro" font-size="11" font-weight="normal" letter-spacing="0.8461539">
                            <text id="1:00-AM">
                                <tspan x="220.335961" y="11">1:00 AM</tspan>
                            </text>
                            <text id="9:04-PM">
                                <tspan x="110.286961" y="11">9:04 PM</tspan>
                            </text>
                            <text id="5:08-PM">
                                <tspan x="0.28696135" y="11">5:08 PM</tspan>
                            </text>
                            <text id="4:56-AM">
                                <tspan x="331.341461" y="11">4:56 AM</tspan>
                            </text>
                            <text id="8:52-AM">
                                <tspan x="442.335961" y="11">8:52 AM</tspan>
                            </text>
                            <text id="12:48-PM">
                                <tspan x="553.063884" y="11">12:48 PM</tspan>
                            </text>
                            <text id="5:00-PM">
                                <tspan x="1550.28696" y="11">5:00 PM</tspan>
                            </text>
                            <text id="5:00-PM">
                                <tspan x="1440.28696" y="11">5:00 PM</tspan>
                            </text>
                            <text id="5:00-PM">
                                <tspan x="1330.28696" y="11">5:00 PM</tspan>
                            </text>
                            <text id="5:00-PM">
                                <tspan x="1220.28696" y="11">5:00 PM</tspan>
                            </text>
                            <text id="5:00-PM">
                                <tspan x="1110.28696" y="11">5:00 PM</tspan>
                            </text>
                            <text id="5:00-PM">
                                <tspan x="1000.28696" y="11">5:00 PM</tspan>
                            </text>
                            <text id="5:00-PM">
                                <tspan x="890.286961" y="11">5:00 PM</tspan>
                            </text>
                            <text id="5:00-PM">
                                <tspan x="780.286961" y="11">5:00 PM</tspan>
                            </text>
                            <text id="5:00-PM">
                                <tspan x="670.286961" y="11">5:00 PM</tspan>
                            </text>
                        </g>
                    </g>
                </g>
            </g>
        </g>
    </g>
</svg>
