<svg width="119" height="29" viewBox="0 0 119 29" xmlns="http://www.w3.org/2000/svg">
  <g fill-rule="nonzero" fill="none">
    <path d="M26.672 14.755c0 2.435-.459 4.536-1.375 6.303-.917 1.767-2.126 3.22-3.627 4.36a15.206 15.206 0 0 1-5.08 2.513 20.87 20.87 0 0 1-5.74.805H.33V.93h10.202c1.993 0 3.959.229 5.898.687 1.94.458 3.666 1.217 5.18 2.278 1.515 1.06 2.737 2.48 3.667 4.26.93 1.781 1.395 3.98 1.395 6.599zm-7.094 0c0-1.571-.259-2.874-.777-3.908-.518-1.034-1.209-1.859-2.072-2.474a8.348 8.348 0 0 0-2.95-1.316 14.697 14.697 0 0 0-3.406-.392H6.985v16.258h3.228c1.222 0 2.398-.137 3.527-.412 1.13-.275 2.125-.727 2.989-1.355.863-.628 1.554-1.466 2.072-2.513.518-1.048.777-2.344.777-3.888z" fill="#00DB9C"/>
    <path d="M56.685 28.736l.16-19.676h-.12L49.38 28.736h-4.79L37.449 9.06h-.12l.16 19.676h-6.426V.93h9.698l6.426 17.83h.16L53.492.93h9.858v27.805h-6.665zm12.492 0V.93h18.998v5.694H75.763v5.223h11.734v5.38H75.763v5.774h13.13v5.734H69.177zm41.269 0l-6.187-9.818-5.946 9.818H90.17l9.898-14.688L90.969.93h8.222l5.268 8.64 5.188-8.64h7.943l-8.94 13.117 10.217 14.688h-8.421z" fill="#FFF"/>
  </g>
</svg>
