<svg width="69" height="70" viewBox="0 0 69 70" xmlns="http://www.w3.org/2000/svg">
  <path
    fill="#BBC6F0"
    d="M67.95 43.47c-4.6 18.75-23.32 30.16-41.8 25.48C7.67 64.28-3.58 45.3 1.03 26.54c4.6-18.76 23.33-30.17 41.8-25.5 18.48 4.68 29.73 23.68 25.12 42.43 0 0 4.61-18.75 0 0z"/>
  <g fill="#FFF">
    <path d="M21.88 33.98L35 13.13l13.13 20.85L35 41.56z"/>
    <path d="M35 13.13l13.13 20.85L35 41.56z"/>
    <path d="M21.88 37.19L35 44.56l13.13-7.37L35 54.69z"/>
    <path d="M35 44.56l13.13-7.37L35 54.69zm-13.12-10.5L35 28.44l13.13 5.62L35 41.56z"/>
    <path d="M35 28.44l13.13 5.62L35 41.56z"/>
  </g>
</svg>
