<svg width="1440" height="496" xmlns="http://www.w3.org/2000/svg"><defs><linearGradient x1="3.738%" y1="22.807%" x2="108.949%" y2="81.276%" id="linearGradient-1"><stop stop-color="#FFF" offset="0%"/><stop stop-color="#FFF" stop-opacity="0" offset="100%"/></linearGradient><linearGradient x1="67.474%" y1="50%" x2="65.042%" y2="96.085%" id="linearGradient-2"><stop stop-color="#FFF" offset="0%"/><stop stop-color="#FFF" stop-opacity="0" offset="100%"/></linearGradient></defs><g id="Page-1" fill="none" fill-rule="evenodd"><g id="Homepage-step_1-updated" transform="translate(0 -2240)" fill-rule="nonzero"><g id="Group-28" transform="translate(-239 2092)"><path d="M211.958 509.962c-81.175-27.367 14.417-63.646 286.779-108.837 408.542-67.787 728.845-52.27 960.53-98.12C1613.724 272.438 1694.64 225.77 1702.01 163c-28.522 158.75-129.052 253.645-301.588 284.685-258.804 46.56-754.883-182.435-923.13-217.168-112.164-23.156-206.884-34.734-284.159-34.734l18.825 288.662v25.517z" id="Path-2" fill="url(#linearGradient-1)" opacity=".555"/><path d="M62.65 634.772c-111.157-37.475 19.742-87.153 392.697-149.035 559.432-92.823 998.036-71.576 1315.292-134.36 211.504-41.856 322.303-105.76 332.397-191.714-39.057 217.383-176.716 347.326-412.976 389.83C1335.669 613.25 656.37 299.678 425.982 252.116c-153.59-31.708-283.294-47.562-389.11-47.562L62.65 599.831v34.941z" id="Path-2-Copy" fill="url(#linearGradient-2)" opacity=".527" transform="rotate(-171 1063.7 397.218)"/></g></g></g></svg>