<?xml version="1.0" encoding="UTF-8"?>
<svg width="480px" height="344px" viewBox="0 0 480 344" version="1.1" xmlns="http://www.w3.org/2000/svg" xmlns:xlink="http://www.w3.org/1999/xlink">
    <!-- Generator: Sketch 48.2 (47327) - http://www.bohemiancoding.com/sketch -->
    <title>Header-Illustration</title>
    <desc>Created with Sketch.</desc>
    <defs>
        <linearGradient x1="14.7817708%" y1="14.7119792%" x2="85.6328125%" y2="85.5635417%" id="linearGradient-1">
            <stop stop-color="#0223E5" offset="0%"></stop>
            <stop stop-color="#0A157E" offset="100%"></stop>
        </linearGradient>
        <linearGradient x1="14.5083333%" y1="14.4911458%" x2="85.359375%" y2="85.3421875%" id="linearGradient-2">
            <stop stop-color="#0223E5" offset="0%"></stop>
            <stop stop-color="#071AA6" offset="100%"></stop>
        </linearGradient>
        <linearGradient x1="14.5237903%" y1="14.8504032%" x2="85.1919355%" y2="85.5185484%" id="linearGradient-3">
            <stop stop-color="#0223E5" offset="0%"></stop>
            <stop stop-color="#0C126A" offset="100%"></stop>
        </linearGradient>
        <linearGradient x1="14.7349099%" y1="14.7279279%" x2="85.3907658%" y2="85.384009%" id="linearGradient-4">
            <stop stop-color="#0223E5" offset="0%"></stop>
            <stop stop-color="#051DBE" offset="100%"></stop>
        </linearGradient>
        <linearGradient x1="13.4828956%" y1="14.5534722%" x2="78.7074952%" y2="85.2586806%" id="linearGradient-5">
            <stop stop-color="#FCD975" offset="0%"></stop>
            <stop stop-color="#FEA727" offset="100%"></stop>
        </linearGradient>
        <linearGradient x1="88.3576042%" y1="82.3409912%" x2="17.6232087%" y2="11.6065957%" id="linearGradient-6">
            <stop stop-color="#4F90F5" offset="0%"></stop>
            <stop stop-color="#61B9F6" offset="100%"></stop>
        </linearGradient>
        <linearGradient x1="8.63563293%" y1="8.66925587%" x2="85.318793%" y2="85.3523465%" id="linearGradient-7">
            <stop stop-color="#FCD975" offset="0%"></stop>
            <stop stop-color="#FEA727" offset="100%"></stop>
        </linearGradient>
        <linearGradient x1="21.2342335%" y1="14.6962662%" x2="86.4576003%" y2="85.4008156%" id="linearGradient-8">
            <stop stop-color="#F7F7F7" offset="0%"></stop>
            <stop stop-color="#828282" offset="100%"></stop>
        </linearGradient>
        <linearGradient x1="11.6095959%" y1="17.6043188%" x2="82.3447606%" y2="88.3394834%" id="linearGradient-9">
            <stop stop-color="#17DA9D" offset="0%"></stop>
            <stop stop-color="#051EC2" offset="100%"></stop>
        </linearGradient>
        <linearGradient x1="-0.0154915615%" y1="50.0637946%" x2="100.011993%" y2="50.0637946%" id="linearGradient-10">
            <stop stop-color="#F7F7F7" offset="0%"></stop>
            <stop stop-color="#828282" offset="100%"></stop>
        </linearGradient>
    </defs>
    <g id="index" stroke="none" stroke-width="1" fill="none" fill-rule="evenodd" transform="translate(-728.000000, -143.000000)">
        <g id="Header-Illustration" transform="translate(728.000000, 143.000000)" fill-rule="nonzero">
            <circle id="Oval" fill="#1ED596" cx="361.9" cy="143.45" r="14.55"></circle>
            <circle id="Oval" fill="#1ED596" cx="308.9" cy="171.4" r="64.25"></circle>
            <circle id="Oval" fill="#2EEBA9" cx="308.9" cy="171.4" r="55.35"></circle>
            <path d="M308.9,159.85 L308.9,125.35 C308.3,125.35 307.75,125.65 307.4,126.2 L279.1,172.9 C279.05,172.95 279.05,173 279.05,173.05 C279.1,173 279.2,172.95 279.3,172.9 L308.9,159.85 Z" id="Shape" fill="#66FFC4"></path>
            <path d="M308.9,159.85 L308.9,125.35 C309.500005,125.35 310.05001,125.65 310.400013,126.2 C310.400013,126.2 338.850262,173.05 338.750525,173.05 L308.9,159.85 Z" id="Shape" fill="#04BF7C"></path>
            <path d="M338.5,172.9 L308.9,159.85 L308.9,192.55 C309,192.55 309.1,192.55 309.2,192.5 L338.05,175.15 C338.55,174.85 338.85,174.3 338.9,173.75 C338.9,173.5 338.85,173.25 338.7,173.05 C338.7,173 338.6,172.95 338.5,172.9 Z" id="Shape" fill="#05AD6D"></path>
            <path d="M279.15,178.8 L307.95,216.9 C308.2,217.2 308.55,217.35 308.9,217.35 L308.9,196.5 L279.15,178.8 Z" id="Shape" fill="#66FFC4"></path>
            <path d="M309.8,216.9 L338.55,178.75 L308.9,196.55 L308.9,217.4 C309.25,217.4 309.6,217.25 309.8,216.9 Z" id="Shape" fill="#04BF7C"></path>
            <path d="M308.9,159.85 L279.3,172.9 C279.2,172.95 279.15,173 279.05,173.05 C278.65,173.8 278.9,174.75 279.6,175.25 L308.55,192.5 C308.65,192.5 308.75,192.55 308.9,192.55 L308.9,159.85 Z" id="Shape" fill="#09D385"></path>
            <circle id="Oval" fill="url(#linearGradient-1)" cx="142.9" cy="107.1" r="4.8"></circle>
            <circle id="Oval" fill="#0223E5" cx="156.5" cy="335.8" r="7.4"></circle>
            <circle id="Oval" fill="url(#linearGradient-2)" cx="472.6" cy="230.85" r="4.8"></circle>
            <circle id="Oval" fill="#0223E5" cx="56.7" cy="317.4" r="2.6"></circle>
            <circle id="Oval" fill="#FFFFFF" cx="122.5" cy="255.1" r="1.15"></circle>
            <circle id="Oval" fill="#FFFFFF" cx="108.9" cy="184.55" r="1"></circle>
            <circle id="Oval" fill="#FFFFFF" cx="65.2" cy="215.9" r="1"></circle>
            <circle id="Oval" fill="#FFFFFF" cx="221.35" cy="342.4" r="1"></circle>
            <circle id="Oval" fill="#FFFFFF" cx="53.6" cy="86.35" r="1"></circle>
            <circle id="Oval" fill="#0223E5" cx="5.7" cy="300.7" r="5.4"></circle>
            <circle id="Oval" fill="url(#linearGradient-3)" cx="45.9" cy="13.55" r="6.2"></circle>
            <circle id="Oval" fill="url(#linearGradient-4)" cx="81.25" cy="272.35" r="11.1"></circle>
            <path d="M209.9,165.35 C209.75,165.35 209.55,165.35 209.4,165.4 C206.55,148.4 191.75,135.45 173.9,135.45 C154,135.45 137.9,151.55 137.9,171.45 C137.9,191.35 154,207.45 173.9,207.45 C191.75,207.45 206.5,194.5 209.4,177.5 C209.55,177.5 209.75,177.55 209.9,177.55 C213.25,177.55 215.95,174.85 215.95,171.5 C215.95,168.15 213.2,165.35 209.9,165.35 Z" id="Shape" fill="url(#linearGradient-5)"></path>
            <path d="M234.15,237.1 C234.05,237.2 233.9,237.35 233.8,237.5 C219.75,227.5 200.1,228.8 187.5,241.4 C173.45,255.45 173.45,278.25 187.5,292.3 C201.55,306.35 224.35,306.35 238.4,292.3 C251,279.7 252.3,260.05 242.3,246 C242.45,245.9 242.55,245.8 242.7,245.65 C245.05,243.3 245.05,239.45 242.7,237.1 C240.35,234.7 236.5,234.7 234.15,237.1 Z" id="Shape" fill="url(#linearGradient-6)"></path>
            <path d="M302.85,270.5 C302.85,270.65 302.85,270.85 302.9,271 C285.9,273.85 272.95,288.65 272.95,306.5 C272.95,326.4 289.05,342.5 308.95,342.5 C328.85,342.5 344.95,326.4 344.95,306.5 C344.95,288.65 332,273.9 315,271 C315,270.85 315.05,270.65 315.05,270.5 C315.05,267.15 312.35,264.45 309,264.45 C305.65,264.45 302.85,267.15 302.85,270.5 Z" id="Shape" fill="#1642F7"></path>
            <path d="M374.7,245.65 C374.8,245.75 374.95,245.9 375.1,246 C365.1,260.05 366.4,279.7 379,292.3 C393.05,306.35 415.85,306.35 429.9,292.3 C443.95,278.25 443.95,255.45 429.9,241.4 C417.3,228.8 397.65,227.5 383.6,237.5 C383.5,237.35 383.4,237.25 383.25,237.1 C380.9,234.75 377.05,234.75 374.7,237.1 C372.3,239.45 372.3,243.3 374.7,245.65 Z" id="Shape" fill="url(#linearGradient-7)"></path>
            <path d="M408,177.45 C408.15,177.45 408.35,177.45 408.5,177.4 C411.35,194.4 426.15,207.35 444,207.35 C463.9,207.35 480,191.25 480,171.35 C480,151.45 463.9,135.35 444,135.35 C426.15,135.35 411.4,148.3 408.5,165.3 C408.35,165.3 408.15,165.25 408,165.25 C404.65,165.25 401.95,167.95 401.95,171.3 C401.9,174.75 404.65,177.45 408,177.45 Z" id="Shape" fill="url(#linearGradient-8)"></path>
            <path d="M383.25,105.6 C383.35,105.5 383.5,105.35 383.6,105.2 C397.65,115.2 417.3,113.9 429.9,101.3 C443.95,87.25 443.95,64.45 429.9,50.4 C415.85,36.35 393.05,36.35 379,50.4 C366.4,63 365.1,82.65 375.1,96.7 C374.95,96.8 374.85,96.9 374.7,97.05 C372.35,99.4 372.35,103.25 374.7,105.6 C377.05,107.95 380.9,107.95 383.25,105.6 Z" id="Shape" fill="url(#linearGradient-9)"></path>
            <path d="M314.95,72.3 C314.95,72.15 314.95,71.95 314.9,71.8 C331.9,68.95 344.85,54.15 344.85,36.3 C344.85,16.4 328.75,0.3 308.85,0.3 C288.95,0.3 272.85,16.4 272.85,36.3 C272.85,54.15 285.8,68.9 302.8,71.8 C302.8,71.95 302.75,72.15 302.75,72.3 C302.75,75.65 305.45,78.35 308.8,78.35 C312.15,78.35 314.95,75.65 314.95,72.3 Z" id="Shape" fill="#0223E5"></path>
            <path d="M243.2,97 C243.1,96.9 242.95,96.75 242.8,96.65 C252.8,82.6 251.5,62.95 238.9,50.35 C224.85,36.3 202.05,36.3 188,50.35 C173.95,64.4 173.95,87.2 188,101.25 C200.6,113.85 220.25,115.15 234.3,105.15 C234.4,105.3 234.5,105.4 234.65,105.55 C237,107.9 240.85,107.9 243.2,105.55 C245.55,103.2 245.55,99.4 243.2,97 Z" id="Shape" fill="url(#linearGradient-10)"></path>
            <path d="M165.45,178.55 C165.35,179.25 164.95,179.6 164.25,179.6 L161.9,179.6 L161.25,183.45 L165.45,183.45 C165.7,183.45 166.1,183.45 166.6,183.45 C167.1,183.45 167.5,183.45 167.75,183.45 L167.75,188.8 L171,188.8 L171,183.5 C171.6,183.5 172.45,183.5 173.55,183.5 L173.55,188.75 L176.8,188.75 L176.8,183.4 C177.95,183.35 178.95,183.25 179.85,183.1 C180.75,182.95 181.6,182.7 182.4,182.4 C183.2,182.05 183.9,181.65 184.45,181.15 C185,180.65 185.45,180.05 185.8,179.3 C186.15,178.55 186.4,177.65 186.5,176.7 C186.7,174.75 186.35,173.25 185.55,172.2 C184.75,171.15 183.5,170.45 181.9,170.05 C184,169 184.9,167.2 184.65,164.65 C184.55,163.75 184.3,162.95 183.9,162.25 C183.45,161.55 182.9,161.05 182.15,160.6 C181.4,160.2 180.65,159.85 179.8,159.65 C178.95,159.45 177.95,159.3 176.85,159.2 L176.85,153.9 L173.6,153.9 L173.6,159.05 C173.05,159.05 172.2,159.05 171.05,159.1 L171.05,153.9 L167.8,153.9 L167.8,159.2 C167.35,159.2 166.65,159.2 165.75,159.2 L161.3,159.2 L161.3,162.65 L163.65,162.65 C164.7,162.65 165.35,163.15 165.5,164.05 L165.5,178.55 L165.45,178.55 Z M171.05,162.9 C171.15,162.9 171.4,162.9 171.9,162.9 C172.35,162.9 172.75,162.9 173.05,162.9 C173.35,162.9 173.75,162.9 174.25,162.95 C174.75,163 175.2,163.05 175.55,163.1 C175.9,163.15 176.3,163.3 176.7,163.45 C177.1,163.6 177.45,163.8 177.7,164.05 C177.95,164.3 178.15,164.55 178.35,164.95 C178.5,165.3 178.6,165.7 178.6,166.2 C178.6,166.6 178.55,166.95 178.4,167.25 C178.25,167.55 178.1,167.85 177.85,168.05 C177.6,168.25 177.35,168.45 177.05,168.6 C176.8,168.75 176.45,168.9 176.05,169 C175.65,169.1 175.3,169.15 174.95,169.25 C174.65,169.3 174.25,169.35 173.8,169.35 C173.35,169.35 173,169.4 172.75,169.4 C172.5,169.4 172.2,169.4 171.8,169.4 C171.4,169.4 171.15,169.4 171.1,169.4 L171.05,162.9 Z M179.85,177.15 C179.7,177.45 179.55,177.75 179.35,178 C179.15,178.25 178.85,178.45 178.5,178.65 C178.15,178.85 177.85,179 177.5,179.1 C177.2,179.2 176.8,179.3 176.35,179.4 C175.9,179.5 175.5,179.55 175.15,179.6 C174.8,179.65 174.4,179.65 173.9,179.7 C173.45,179.7 173.05,179.75 172.8,179.75 C172.55,179.75 172.2,179.75 171.8,179.75 C171.4,179.75 171.15,179.75 171,179.75 L171,172.65 C171.1,172.65 171.45,172.65 172,172.65 C172.55,172.65 173,172.65 173.35,172.65 C173.7,172.65 174.2,172.65 174.8,172.7 C175.4,172.75 175.95,172.8 176.35,172.9 C176.75,173 177.25,173.1 177.7,173.3 C178.2,173.45 178.6,173.7 178.9,173.95 C179.2,174.2 179.45,174.5 179.7,174.9 C179.9,175.3 180,175.75 180,176.25 C180.05,176.5 180,176.85 179.85,177.15 Z" id="Shape" fill="#FFFFFF"></path>
            <path d="M226.2,256.2 C226.2,256.2 226.2,256.2 226.2,256.2 L226.15,256.05 C226.15,255.45 226,254.9 225.85,254.35 C225.7,253.9 225.55,253.45 225.3,253.05 C225.2,252.9 225.1,252.7 225,252.55 C224.8,252.1 224.45,251.7 224.05,251.35 C223.75,251 223.4,250.7 223.05,250.45 C222.7,250.2 222.35,249.95 221.95,249.8 C221.4,249.5 220.85,249.35 220.25,249.25 C219.65,249.1 219.1,249.05 218.5,249.1 C217.7,249.1 216.95,249.25 216.25,249.55 C214.1,250.35 212.6,251.85 211.8,254 C211.5,254.75 211.35,255.55 211.35,256.35 C211.3,256.9 211.35,257.45 211.55,258 C211.55,258 211.55,258.05 211.55,258.05 C211.65,258.6 211.8,259.1 212.05,259.55 C212.2,260.05 212.5,260.45 212.7,260.95 C212.85,261.45 212.9,262 212.85,262.55 C212.7,263.3 212.35,263.85 211.75,264.3 C211.35,264.6 210.9,264.75 210.45,264.9 C209.9,264.95 209.35,264.85 208.85,264.7 C208.5,264.5 208.2,264.3 207.9,264.05 C207.55,263.7 207.35,263.25 207.05,262.85 C206.8,262.4 206.5,262 206.1,261.7 C206.1,261.7 206.1,261.7 206.1,261.7 C205.9,261.45 205.65,261.25 205.4,261.05 C205.15,260.8 204.85,260.6 204.55,260.45 C204.2,260.2 203.85,260.05 203.45,259.95 C203,259.75 202.55,259.6 202.05,259.6 C202,259.55 201.95,259.55 201.9,259.55 C201.3,259.45 200.75,259.4 200.15,259.5 C199.5,259.5 198.85,259.7 198.25,259.95 C197.95,260 197.7,260.15 197.4,260.3 C195.75,261.2 194.55,262.45 193.9,264.25 C193.65,264.85 193.5,265.5 193.45,266.15 C193.35,266.75 193.35,267.4 193.5,268 C193.5,268.05 193.5,268.1 193.55,268.15 C193.6,268.6 193.7,269.05 193.9,269.5 C193.9,269.5 193.9,269.5 193.9,269.5 C194,269.9 194.2,270.25 194.4,270.6 C194.4,270.6 194.4,270.6 194.4,270.6 C194.55,270.95 194.75,271.2 195,271.45 C195.15,271.7 195.35,271.9 195.55,272.1 C195.9,272.5 196.3,272.8 196.75,273.1 C197.15,273.4 197.65,273.65 198.1,273.8 C198.55,274 199,274.1 199.5,274.2 C200.1,274.35 200.65,274.35 201.25,274.3 C201.95,274.3 202.65,274.15 203.3,273.85 C204.95,273.3 206.15,272.25 207.05,270.8 C207.65,269.85 208.35,269.05 209.5,268.8 C210.05,268.75 210.6,268.85 211.1,269.05 C211.5,269.25 211.85,269.55 212.2,269.9 C212.4,270.2 212.55,270.55 212.7,270.9 C212.85,271.65 212.8,272.4 212.5,273.1 C211.85,274.3 211.35,275.5 211.3,276.85 C211.3,276.9 211.3,276.95 211.3,277 C211.25,277.5 211.3,278.05 211.45,278.55 C211.5,279.05 211.65,279.5 211.85,279.95 C211.85,279.95 211.85,280 211.85,280 C211.85,280 211.85,280 211.85,280 C212,280.5 212.25,280.95 212.55,281.35 C212.8,281.75 213.1,282.1 213.45,282.45 C213.65,282.7 213.9,282.9 214.2,283.1 C214.5,283.35 214.8,283.55 215.15,283.7 C215.5,283.9 215.85,284.1 216.25,284.2 C216.7,284.4 217.2,284.5 217.7,284.55 C217.7,284.6 217.75,284.6 217.75,284.65 C217.85,284.65 218,284.65 218.1,284.65 C218.45,284.65 218.8,284.65 219.1,284.65 C219.2,284.65 219.3,284.65 219.4,284.65 C219.4,284.65 219.45,284.65 219.45,284.65 C219.45,284.55 219.55,284.6 219.6,284.6 C220.1,284.5 220.55,284.45 221,284.25 C221.35,284.1 221.7,284 222,283.85 C223.8,282.9 225.05,281.45 225.65,279.5 C225.85,279.1 225.9,278.65 225.95,278.2 C225.95,278.2 225.95,278.2 225.95,278.2 C226,278.2 226,278.2 226.05,278.2 C226.1,278 226.05,277.8 226.05,277.6 C226.05,277.35 226.1,277.15 226,276.9 C226,276.85 226,276.75 225.95,276.7 C225.95,276.55 225.95,276.45 225.9,276.35 C225.9,275.8 225.75,275.3 225.55,274.8 C225.45,274.4 225.25,274.05 225.05,273.7 C224.95,273.35 224.7,273.1 224.5,272.8 C224.3,272.5 224.1,272.25 223.8,272 C223.5,271.7 223.2,271.4 222.8,271.2 C222.4,270.85 221.95,270.6 221.4,270.45 C221,270.25 220.6,270.15 220.15,270.1 C220.1,270.1 220.05,270.1 220.05,270.05 C219.45,269.9 218.8,269.85 218.2,269.85 C217.55,269.75 217,269.6 216.45,269.25 C216.1,268.95 215.8,268.6 215.55,268.15 C215.45,267.8 215.35,267.5 215.3,267.1 C215.2,265.4 216.45,264.15 218.1,263.95 C218.15,263.95 218.2,263.95 218.25,263.95 C218.45,263.95 218.65,263.95 218.8,263.9 C218.85,263.9 218.85,263.9 218.9,263.9 C219.25,263.9 219.65,263.85 220,263.75 C221.45,263.55 222.65,262.9 223.7,261.9 C224.8,260.8 225.55,259.5 225.85,257.95 C225.95,257.6 226,257.2 226,256.85 L226.05,256.85 L226.1,256.85 C226.1,256.65 226.1,256.4 226.1,256.2 C226.25,256.15 226.25,256.15 226.2,256.2 Z" id="Shape" fill="#FFFFFF"></path>
            <g id="WjOnGQ.tif" transform="translate(432.000000, 158.000000)" fill="#FFFFFF">
                <path d="M3,18.25 C2.05,18.6 1.3,18.9 0.55,19.15 C0.15,19.3 -0.1,19.3 0.1,18.75 C0.15,18.6 0.2,18.5 0.2,18.35 C0.4,16.25 1.35,14.8 3.6,14.5 C4.1,14.45 4.2,14 4.3,13.65 C5.35,9.6 6.45,5.6 7.5,1.55 C7.95,-0.05 7.75,0.25 9.25,0.25 C11.2,0.25 13.2,0.25 15.15,0.25 C15.8,0.25 15.95,0.4 15.8,1.05 C14.95,4.05 14.15,7.1 13.35,10.15 C13.3,10.4 13.1,10.7 13.35,10.9 C13.55,11.05 13.8,10.85 14,10.75 C14.85,10.45 15.7,10.15 16.55,9.85 C17,9.65 17.1,9.8 17,10.25 C16.75,11.15 16.5,12.05 16.3,12.95 C16.2,13.35 15.95,13.6 15.6,13.7 C14.7,14 13.8,14.35 12.9,14.65 C12.35,14.85 12.05,15.15 11.9,15.75 C11.5,17.35 11.1,18.95 10.65,20.5 C10.45,21.2 10.55,21.45 11.35,21.4 C15.2,21.35 19.05,21.4 22.9,21.4 C23.95,21.4 23.95,21.4 23.65,22.4 C23.35,23.55 23,24.7 22.7,25.85 C22.6,26.3 22.4,26.5 21.9,26.5 C15.15,26.5 8.45,26.5 1.7,26.5 C1,26.5 0.95,26.25 1.1,25.65 C1.7,23.5 2.25,21.35 2.85,19.2 C2.85,18.95 2.9,18.7 3,18.25 Z" id="Shape"></path>
            </g>
            <g id="Group" transform="translate(291.500000, 289.000000)" fill="#FFFFFF">
                <path d="M0.15,17.75 C0.15,17.5 0.15,17.3 0.15,17.05 C0.3,12.4 1.95,8.45 5.25,5.15 C8.5,1.95 12.45,0.3 17,0.15 C17.25,0.15 17.45,0.15 17.7,0.15 C22.35,0.3 26.4,2 29.65,5.3 C33.35,9.1 34.95,13.7 34.5,18.95 C34.4,20.1 34.15,21.25 33.85,22.4 C33.75,22.7 33.65,22.75 33.35,22.75 C31.9,22.75 30.45,22.75 28.95,22.75 C28.6,22.75 28.55,22.65 28.55,22.35 C28.55,17.85 28.55,13.4 28.55,8.9 C28.55,8.75 28.55,8.6 28.55,8.4 C28.35,8.45 28.25,8.6 28.15,8.7 C24.65,12.2 21.15,15.65 17.7,19.15 C17.45,19.4 17.3,19.45 17.05,19.15 C13.6,15.65 10.1,12.2 6.65,8.7 C6.55,8.6 6.45,8.45 6.35,8.3 C6.3,8.3 6.25,8.35 6.2,8.35 C6.2,8.5 6.2,8.65 6.2,8.8 C6.2,13.25 6.2,17.75 6.2,22.2 C6.2,22.65 6.1,22.7 5.7,22.7 C4.3,22.65 2.85,22.7 1.45,22.7 C1.15,22.7 1,22.6 0.9,22.3 C0.45,20.9 0.2,19.35 0.15,17.75 Z" id="Shape"></path>
                <path d="M24.85,17.25 C24.85,20.15 24.85,23 24.85,25.85 C24.85,26.25 24.95,26.3 25.35,26.3 C27.6,26.3 29.8,26.3 32.15,26.3 C28.9,31.25 24.45,34.1 18.6,34.55 C11.35,35.1 5.5,31.05 2.75,26.35 C2.9,26.35 3.05,26.35 3.2,26.35 C5.3,26.35 7.4,26.35 9.5,26.35 C9.85,26.35 10,26.3 10,25.9 C10,23.05 10,20.2 10,17.3 C10.2,17.3 10.25,17.45 10.35,17.55 C12.6,19.8 14.9,22.1 17.15,24.35 C17.4,24.6 17.5,24.6 17.75,24.35 C20,22.1 22.25,19.8 24.55,17.55 C24.55,17.45 24.65,17.3 24.85,17.25 Z" id="Shape"></path>
            </g>
            <g id="Group" transform="translate(385.000000, 58.000000)" fill="#FFFFFF">
                <path d="M25.35,15.35 C24,15.35 22.85,16.55 22.8,17.9 C22.8,19.3 24,20.5 25.4,20.5 C26.75,20.5 27.95,19.3 27.95,17.9 C27.95,16.5 26.75,15.3 25.35,15.35 Z" id="Shape"></path>
                <path d="M10.7,18 C10.75,19.4 11.9,20.55 13.25,20.55 C14.65,20.55 15.85,19.35 15.8,17.95 C15.75,16.55 14.6,15.45 13.25,15.4 C11.9,15.35 10.7,16.6 10.7,18 Z" id="Shape"></path>
                <path d="M22.4,20.6 C20.95,20.6 19.85,21.75 19.85,23.2 C19.85,24.6 21,25.75 22.35,25.75 C23.8,25.75 24.9,24.65 24.9,23.15 C24.9,21.75 23.75,20.6 22.4,20.6 Z" id="Shape"></path>
                <path d="M16.25,15.25 C17.7,15.25 18.85,14.15 18.85,12.7 C18.85,11.3 17.75,10.15 16.35,10.15 C14.9,10.15 13.75,11.25 13.75,12.7 C13.75,14.05 14.85,15.2 16.25,15.25 Z" id="Shape"></path>
                <path d="M18.85,23.25 C18.85,21.8 17.8,20.7 16.4,20.65 C14.95,20.65 13.8,21.75 13.75,23.15 C13.75,24.55 14.85,25.7 16.2,25.75 C17.7,25.75 18.85,24.65 18.85,23.25 Z" id="Shape"></path>
                <path d="M19.8,12.65 C19.8,14.1 20.85,15.2 22.25,15.25 C23.7,15.25 24.85,14.15 24.85,12.75 C24.85,11.35 23.75,10.2 22.4,10.15 C20.95,10.1 19.85,11.2 19.8,12.65 Z" id="Shape"></path>
                <path d="M19.3,9.05 C20.1,9.05 20.8,8.35 20.8,7.55 C20.8,6.7 20.1,6 19.3,6 C18.5,6 17.8,6.7 17.8,7.5 C17.8,8.3 18.5,9.05 19.3,9.05 Z" id="Shape"></path>
                <path d="M26.8,12.7 C26.8,13.5 27.5,14.2 28.3,14.2 C29.1,14.2 29.75,13.55 29.8,12.7 C29.8,11.85 29.15,11.2 28.35,11.15 C27.5,11.15 26.8,11.9 26.8,12.7 Z" id="Shape"></path>
                <path d="M11.9,23.05 C11.85,22.25 11.15,21.6 10.35,21.6 C9.55,21.65 8.9,22.3 8.9,23.15 C8.9,24 9.6,24.65 10.4,24.65 C11.2,24.65 11.9,23.9 11.9,23.05 Z" id="Shape"></path>
                <path d="M28.35,21.6 C27.55,21.55 26.85,22.25 26.8,23.05 C26.75,23.85 27.45,24.65 28.3,24.65 C29.1,24.65 29.8,24 29.8,23.15 C29.85,22.3 29.2,21.6 28.35,21.6 Z" id="Shape"></path>
                <path d="M10.4,14.25 C11.2,14.25 11.9,13.5 11.9,12.75 C11.9,11.95 11.2,11.25 10.4,11.25 C9.55,11.25 8.85,11.95 8.9,12.8 C8.9,13.6 9.6,14.3 10.4,14.25 Z" id="Shape"></path>
                <path d="M19.3,26.8 C18.45,26.75 17.75,27.45 17.75,28.3 C17.75,29.1 18.4,29.8 19.2,29.8 C20,29.8 20.7,29.15 20.7,28.3 C20.75,27.55 20.1,26.85 19.3,26.8 Z" id="Shape"></path>
                <path d="M12.65,28.35 C11.95,28.35 11.4,28.95 11.4,29.65 C11.4,30.35 11.95,30.95 12.65,30.95 C13.35,30.95 13.95,30.4 13.95,29.7 C13.95,28.95 13.35,28.35 12.65,28.35 Z" id="Shape"></path>
                <path d="M26.05,7.5 C26.75,7.5 27.35,6.85 27.35,6.15 C27.3,5.45 26.7,4.9 26.05,4.9 C25.4,4.9 24.8,5.55 24.8,6.2 C24.75,6.9 25.35,7.5 26.05,7.5 Z" id="Shape"></path>
                <path d="M5.9,16.7 C5.2,16.7 4.65,17.25 4.6,17.95 C4.6,18.65 5.2,19.3 5.9,19.25 C6.55,19.25 7.15,18.65 7.15,17.95 C7.15,17.25 6.6,16.7 5.9,16.7 Z" id="Shape"></path>
                <path d="M26.15,28.3 C25.4,28.25 24.85,28.85 24.85,29.6 C24.85,30.3 25.45,30.85 26.1,30.9 C26.75,30.9 27.35,30.35 27.35,29.65 C27.35,28.9 26.85,28.35 26.15,28.3 Z" id="Shape"></path>
                <path d="M34.05,17.85 C34.05,17.15 33.45,16.6 32.75,16.6 C32.1,16.6 31.5,17.2 31.5,17.85 C31.5,18.55 32.1,19.15 32.85,19.1 C33.55,19.1 34.1,18.55 34.05,17.85 Z" id="Shape"></path>
                <path d="M12.65,7.5 C13.35,7.45 13.85,6.9 13.85,6.2 C13.85,5.5 13.25,4.95 12.6,4.95 C11.9,4.95 11.35,5.55 11.35,6.25 C11.35,7 11.95,7.55 12.65,7.5 Z" id="Shape"></path>
                <path d="M19.3,2.35 C19.9,2.3 20.35,1.95 20.35,1.3 C20.35,0.7 19.95,0.25 19.35,0.25 C18.75,0.25 18.3,0.6 18.3,1.25 C18.25,1.95 18.65,2.25 19.3,2.35 Z" id="Shape"></path>
                <path d="M33.7,25.2 C33.05,25.2 32.7,25.6 32.65,26.2 C32.7,26.85 33.05,27.25 33.7,27.25 C34.3,27.25 34.75,26.85 34.75,26.2 C34.7,25.6 34.35,25.15 33.7,25.2 Z" id="Shape"></path>
                <path d="M4.95,10.65 C5.6,10.65 5.95,10.3 6.05,9.65 C6,9.05 5.7,8.6 5.05,8.55 C4.45,8.55 4,8.9 4,9.55 C3.95,10.2 4.25,10.65 4.95,10.65 Z" id="Shape"></path>
                <path d="M19.3,33.5 C18.65,33.45 18.3,33.85 18.2,34.5 C18.25,35.15 18.55,35.55 19.2,35.6 C19.85,35.65 20.25,35.2 20.25,34.6 C20.35,33.95 19.95,33.55 19.3,33.5 Z" id="Shape"></path>
                <path d="M5,25.25 C4.35,25.25 4,25.7 3.95,26.3 C3.95,26.95 4.35,27.3 5,27.35 C5.6,27.3 6,26.95 6,26.3 C6.05,25.6 5.65,25.25 5,25.25 Z" id="Shape"></path>
                <path d="M33.65,10.6 C34.3,10.65 34.65,10.2 34.7,9.6 C34.75,8.95 34.35,8.6 33.7,8.55 C33.05,8.55 32.75,8.95 32.65,9.55 C32.65,10.2 33,10.6 33.65,10.6 Z" id="Shape"></path>
                <path d="M1.15,17.15 C0.65,17.15 0.3,17.4 0.3,17.95 C0.3,18.45 0.6,18.7 1.1,18.8 C1.6,18.75 1.9,18.45 1.9,17.95 C1.9,17.5 1.6,17.2 1.15,17.15 Z" id="Shape"></path>
                <path d="M37.6,17.05 C37.1,17.1 36.75,17.35 36.75,17.85 C36.75,18.3 37,18.65 37.45,18.65 C37.95,18.7 38.3,18.4 38.35,17.9 C38.4,17.4 38.1,17.15 37.6,17.05 Z" id="Shape"></path>
                <path d="M28.45,32.95 C28,33 27.7,33.3 27.7,33.75 C27.7,34.25 28,34.55 28.55,34.55 C29.05,34.55 29.3,34.2 29.35,33.75 C29.25,33.2 28.95,32.9 28.45,32.95 Z" id="Shape"></path>
                <path d="M10.15,2.9 C10.65,2.9 10.95,2.65 11,2.1 C11,1.6 10.7,1.3 10.2,1.3 C9.75,1.3 9.45,1.6 9.4,2.05 C9.35,2.55 9.6,2.85 10.15,2.9 Z" id="Shape"></path>
                <path d="M28.35,2.85 C28.85,2.9 29.15,2.6 29.2,2.1 C29.15,1.6 28.9,1.3 28.4,1.25 C27.95,1.25 27.65,1.5 27.6,1.95 C27.6,2.5 27.85,2.8 28.35,2.85 Z" id="Shape"></path>
                <path d="M10.25,33 C9.75,33 9.45,33.3 9.45,33.8 C9.45,34.3 9.8,34.55 10.3,34.6 C10.8,34.55 11.05,34.25 11.05,33.75 C11,33.25 10.7,33 10.25,33 Z" id="Shape"></path>
            </g>
            <g id="_x35_XXDm8.tif" transform="translate(195.500000, 59.000000)" fill="#FFFFFF">
                <g id="Group">
                    <path d="M0.45,17.9 C0.6,17.5 0.75,17.1 1.1,16.8 C1.75,16.2 2.7,16.1 3.5,16.6 C4.25,17.05 4.6,17.95 4.4,18.85 C4.2,19.7 3.45,20.3 2.6,20.35 C1.7,20.4 0.9,19.85 0.6,19.05 C0.55,18.95 0.6,18.85 0.5,18.8 C0.45,18.5 0.45,18.2 0.45,17.9 Z" id="Shape"></path>
                    <path d="M20.05,33.65 C20,33.55 19.9,33.6 19.85,33.55 C19.05,33.25 18.6,32.5 18.7,31.6 C18.8,30.8 19.55,30.2 20.35,30.2 C21.15,30.2 21.85,30.75 22.05,31.55 C22.25,32.35 21.8,33.15 21.05,33.5 C20.95,33.55 20.8,33.6 20.7,33.65 C20.5,33.65 20.3,33.65 20.05,33.65 Z" id="Shape"></path>
                    <path d="M23.85,2.2 C23.85,1.05 24.75,0.2 25.9,0.2 C27,0.2 27.9,1.1 27.9,2.2 C27.9,3.3 27,4.2 25.85,4.2 C24.7,4.2 23.85,3.3 23.85,2.2 Z" id="Shape"></path>
                    <path d="M28.1,28.55 C29.2,28.55 30.1,29.4 30.1,30.55 C30.1,31.65 29.2,32.55 28.1,32.55 C27,32.55 26.1,31.65 26.1,30.55 C26.1,29.4 27,28.55 28.1,28.55 Z" id="Shape"></path>
                    <path d="M28.15,7.5 C28.15,8.45 27.35,9.2 26.4,9.2 C25.45,9.2 24.7,8.45 24.7,7.45 C24.7,6.5 25.45,5.75 26.45,5.75 C27.35,5.8 28.15,6.6 28.15,7.5 Z" id="Shape"></path>
                    <path d="M23.25,30.1 C22.3,30.1 21.55,29.35 21.5,28.4 C21.5,27.45 22.3,26.65 23.2,26.65 C24.15,26.65 24.9,27.45 24.9,28.35 C24.95,29.3 24.15,30.1 23.25,30.1 Z" id="Shape"></path>
                    <path d="M6.75,13.45 C7.7,13.45 8.5,14.2 8.5,15.15 C8.5,16.1 7.7,16.9 6.75,16.85 C5.8,16.85 5.05,16.05 5.05,15.1 C5.05,14.2 5.8,13.45 6.75,13.45 Z" id="Shape"></path>
                    <path d="M30.9,9.85 C29.95,9.85 29.2,9.1 29.2,8.15 C29.2,7.2 30,6.4 30.95,6.45 C31.9,6.45 32.65,7.25 32.65,8.15 C32.6,9.1 31.85,9.85 30.9,9.85 Z" id="Shape"></path>
                    <path d="M6.75,10.95 C6.75,11.9 6,12.65 5.05,12.65 C4.1,12.65 3.3,11.9 3.3,10.95 C3.3,10 4.1,9.2 5,9.2 C6,9.25 6.75,10.05 6.75,10.95 Z" id="Shape"></path>
                    <path d="M15.35,29.2 C15.35,28.35 16,27.7 16.8,27.7 C17.6,27.7 18.25,28.35 18.25,29.15 C18.25,29.95 17.6,30.65 16.8,30.65 C16,30.7 15.35,30.05 15.35,29.2 Z" id="Shape"></path>
                    <path d="M28.9,12.65 C28.9,11.85 29.55,11.15 30.4,11.2 C31.2,11.2 31.85,11.85 31.85,12.7 C31.85,13.5 31.2,14.15 30.35,14.15 C29.55,14.1 28.9,13.45 28.9,12.65 Z" id="Shape"></path>
                    <path d="M10.7,9.2 C10.7,10.05 10.05,10.65 9.2,10.65 C8.4,10.65 7.75,10 7.75,9.2 C7.75,8.35 8.4,7.75 9.25,7.75 C10.05,7.75 10.7,8.4 10.7,9.2 Z" id="Shape"></path>
                    <path d="M12.4,13.4 C12.4,14.2 11.75,14.85 10.95,14.85 C10.15,14.85 9.5,14.2 9.5,13.35 C9.5,12.5 10.15,11.9 11,11.9 C11.75,11.95 12.4,12.6 12.4,13.4 Z" id="Shape"></path>
                    <path d="M24.4,12 C24.4,11.2 25.05,10.55 25.85,10.55 C26.65,10.55 27.35,11.2 27.35,12.05 C27.35,12.85 26.7,13.5 25.9,13.5 C25.05,13.5 24.4,12.85 24.4,12 Z" id="Shape"></path>
                    <path d="M7.15,5.4 C7.15,4.6 7.8,3.95 8.6,3.95 C9.4,3.95 10.05,4.6 10.05,5.4 C10.05,6.25 9.4,6.9 8.6,6.9 C7.8,6.85 7.15,6.2 7.15,5.4 Z" id="Shape"></path>
                    <path d="M21.05,25.65 C21.05,26.45 20.4,27.1 19.55,27.1 C18.75,27.1 18.1,26.45 18.1,25.65 C18.1,24.85 18.75,24.2 19.55,24.15 C20.4,24.15 21.05,24.8 21.05,25.65 Z" id="Shape"></path>
                    <path d="M15.25,31.65 C15.25,32.5 14.6,33.1 13.8,33.1 C13,33.1 12.35,32.45 12.3,31.65 C12.3,30.85 12.95,30.15 13.75,30.15 C14.6,30.15 15.25,30.8 15.25,31.65 Z" id="Shape"></path>
                    <path d="M33.95,15.5 C33.15,15.5 32.5,14.85 32.5,14.05 C32.5,13.25 33.2,12.55 34,12.6 C34.8,12.6 35.45,13.3 35.45,14.1 C35.4,14.85 34.75,15.5 33.95,15.5 Z" id="Shape"></path>
                    <path d="M14.3,25 C15,25 15.55,25.55 15.55,26.25 C15.55,26.95 15,27.5 14.3,27.5 C13.6,27.5 13.05,26.95 13.05,26.25 C13.05,25.55 13.6,25 14.3,25 Z" id="Shape"></path>
                    <path d="M13.05,7.25 C13.75,7.25 14.3,7.8 14.25,8.5 C14.25,9.2 13.65,9.75 13,9.75 C12.3,9.75 11.75,9.15 11.75,8.5 C11.8,7.85 12.35,7.25 13.05,7.25 Z" id="Shape"></path>
                    <path d="M15.85,22.65 C15.85,21.95 16.4,21.4 17.1,21.4 C17.8,21.4 18.35,21.95 18.35,22.65 C18.35,23.35 17.8,23.9 17.1,23.9 C16.35,23.9 15.85,23.4 15.85,22.65 Z" id="Shape"></path>
                    <path d="M11.35,29.95 C10.65,29.95 10.05,29.4 10.1,28.7 C10.1,28 10.65,27.45 11.35,27.45 C12.05,27.45 12.6,28 12.6,28.7 C12.6,29.35 12.05,29.95 11.35,29.95 Z" id="Shape"></path>
                    <path d="M23.3,15.65 C23.3,14.95 23.85,14.4 24.55,14.4 C25.25,14.4 25.8,14.95 25.8,15.7 C25.8,16.4 25.25,16.9 24.55,16.9 C23.85,16.9 23.3,16.35 23.3,15.65 Z" id="Shape"></path>
                    <path d="M29,17.55 C28.3,17.55 27.75,17 27.75,16.3 C27.75,15.6 28.3,15.05 29,15.05 C29.7,15.05 30.25,15.6 30.25,16.35 C30.25,17 29.75,17.55 29,17.55 Z" id="Shape"></path>
                    <path d="M12.4,5.95 C11.7,5.95 11.2,5.4 11.2,4.65 C11.2,3.95 11.8,3.4 12.5,3.4 C13.2,3.4 13.75,4 13.75,4.7 C13.7,5.45 13.1,5.95 12.4,5.95 Z" id="Shape"></path>
                    <path d="M14.75,13.95 C14.05,13.95 13.5,13.4 13.5,12.7 C13.5,12 14.05,11.45 14.75,11.45 C15.45,11.45 16,12 16,12.7 C16,13.45 15.45,13.95 14.75,13.95 Z" id="Shape"></path>
                    <path d="M33.9,17.65 C33.9,18.35 33.35,18.9 32.65,18.9 C31.95,18.9 31.4,18.35 31.4,17.65 C31.4,16.95 31.95,16.4 32.65,16.4 C33.3,16.4 33.9,16.95 33.9,17.65 Z" id="Shape"></path>
                    <path d="M18.05,11.8 C18.65,11.8 19.1,12.25 19.1,12.85 C19.1,13.45 18.6,13.95 18,13.95 C17.4,13.95 16.95,13.5 16.95,12.9 C16.95,12.3 17.45,11.8 18.05,11.8 Z" id="Shape"></path>
                    <path d="M29.75,20.4 C29.75,19.8 30.25,19.35 30.85,19.35 C31.45,19.35 31.9,19.8 31.9,20.45 C31.9,21.05 31.45,21.5 30.85,21.55 C30.25,21.55 29.75,21 29.75,20.4 Z" id="Shape"></path>
                    <path d="M16.8,4.9 C16.8,5.5 16.35,5.95 15.7,5.95 C15.1,5.95 14.65,5.45 14.65,4.85 C14.65,4.25 15.15,3.8 15.75,3.8 C16.35,3.8 16.8,4.3 16.8,4.9 Z" id="Shape"></path>
                    <path d="M15.6,18.65 C16.2,18.65 16.7,19.1 16.7,19.7 C16.7,20.3 16.25,20.75 15.65,20.8 C15.05,20.8 14.55,20.35 14.55,19.75 C14.5,19.15 15,18.65 15.6,18.65 Z" id="Shape"></path>
                    <path d="M12.85,24.4 C12.25,24.4 11.75,23.95 11.75,23.35 C11.75,22.75 12.25,22.25 12.85,22.25 C13.45,22.25 13.9,22.75 13.9,23.3 C13.9,23.9 13.45,24.4 12.85,24.4 Z" id="Shape"></path>
                    <path d="M27.25,20.1 C26.65,20.1 26.2,19.65 26.2,19.05 C26.2,18.45 26.7,18 27.3,18 C27.9,18 28.35,18.45 28.35,19.1 C28.3,19.7 27.85,20.1 27.25,20.1 Z" id="Shape"></path>
                    <path d="M22.75,19.5 C22.15,19.5 21.65,19 21.65,18.45 C21.65,17.85 22.1,17.35 22.7,17.35 C23.3,17.35 23.75,17.8 23.8,18.4 C23.85,19 23.35,19.5 22.75,19.5 Z" id="Shape"></path>
                    <path d="M8.75,25.75 C8.75,25.15 9.2,24.65 9.8,24.65 C10.4,24.65 10.9,25.15 10.9,25.7 C10.9,26.3 10.45,26.8 9.85,26.8 C9.25,26.8 8.75,26.35 8.75,25.75 Z" id="Shape"></path>
                    <path d="M16.3,9.75 C15.7,9.75 15.25,9.25 15.25,8.65 C15.25,8.05 15.75,7.6 16.35,7.6 C16.95,7.6 17.4,8.1 17.4,8.7 C17.4,9.3 16.9,9.75 16.3,9.75 Z" id="Shape"></path>
                    <path d="M24.3,21 C24.3,20.5 24.7,20.05 25.2,20.05 C25.7,20.05 26.15,20.45 26.15,20.95 C26.15,21.5 25.75,21.9 25.25,21.9 C24.75,21.9 24.3,21.5 24.3,21 Z" id="Shape"></path>
                    <path d="M9.15,22.15 C9.65,22.15 10.05,22.55 10.05,23.05 C10.05,23.55 9.6,24 9.15,24 C8.65,24 8.2,23.55 8.2,23.05 C8.2,22.5 8.65,22.15 9.15,22.15 Z" id="Shape"></path>
                    <path d="M15.85,17.05 C15.85,17.55 15.45,17.95 14.95,18 C14.45,18 14,17.55 14,17.05 C14,16.55 14.45,16.15 14.95,16.15 C15.45,16.1 15.85,16.5 15.85,17.05 Z" id="Shape"></path>
                    <path d="M20.7,14.55 C20.2,14.55 19.8,14.15 19.8,13.65 C19.8,13.1 20.2,12.75 20.75,12.75 C21.25,12.75 21.65,13.15 21.65,13.7 C21.65,14.2 21.25,14.6 20.7,14.55 Z" id="Shape"></path>
                    <path d="M19,8.55 C19.5,8.55 19.9,8.95 19.9,9.45 C19.9,9.95 19.5,10.4 19,10.4 C18.5,10.4 18.1,10 18.05,9.5 C18.1,8.95 18.5,8.55 19,8.55 Z" id="Shape"></path>
                    <path d="M13.05,20.6 C13.05,21.1 12.6,21.55 12.15,21.55 C11.65,21.55 11.2,21.05 11.25,20.55 C11.25,20.05 11.65,19.65 12.2,19.65 C12.65,19.7 13.05,20.1 13.05,20.6 Z" id="Shape"></path>
                    <path d="M27.9,22.35 C27.9,21.85 28.35,21.45 28.85,21.45 C29.35,21.45 29.75,21.85 29.75,22.4 C29.75,22.95 29.35,23.35 28.8,23.3 C28.3,23.25 27.9,22.85 27.9,22.35 Z" id="Shape"></path>
                    <path d="M20.75,19.45 C21.25,19.45 21.65,19.85 21.65,20.35 C21.65,20.9 21.25,21.25 20.75,21.25 C20.2,21.25 19.8,20.85 19.8,20.3 C19.85,19.85 20.25,19.45 20.75,19.45 Z" id="Shape"></path>
                    <path d="M17.5,5.65 C17.5,5.1 17.9,4.75 18.45,4.75 C18.95,4.75 19.35,5.15 19.35,5.65 C19.35,6.15 18.95,6.6 18.4,6.6 C17.9,6.6 17.5,6.15 17.5,5.65 Z" id="Shape"></path>
                    <path d="M21.25,6.8 C21.25,7.25 20.9,7.6 20.45,7.55 C20,7.55 19.7,7.2 19.7,6.75 C19.7,6.3 20.05,5.95 20.5,5.95 C20.95,6 21.3,6.35 21.25,6.8 Z" id="Shape"></path>
                    <path d="M8.3,20.65 C8.3,20.2 8.6,19.85 9.05,19.85 C9.5,19.85 9.85,20.2 9.85,20.65 C9.85,21.1 9.5,21.45 9.05,21.45 C8.65,21.45 8.3,21.1 8.3,20.65 Z" id="Shape"></path>
                    <path d="M12.9,18.25 C12.9,18.7 12.55,19.05 12.1,19.05 C11.65,19.05 11.3,18.7 11.3,18.25 C11.3,17.8 11.65,17.45 12.1,17.45 C12.55,17.45 12.9,17.8 12.9,18.25 Z" id="Shape"></path>
                    <path d="M27.6,23.6 C27.6,24.05 27.25,24.4 26.8,24.4 C26.35,24.4 26,24 26,23.6 C26,23.15 26.35,22.8 26.8,22.8 C27.25,22.8 27.6,23.15 27.6,23.6 Z" id="Shape"></path>
                    <path d="M21.1,11.4 C20.65,11.4 20.3,11.05 20.3,10.6 C20.3,10.15 20.65,9.85 21.1,9.8 C21.55,9.8 21.9,10.15 21.9,10.6 C21.9,11.05 21.55,11.4 21.1,11.4 Z" id="Shape"></path>
                    <path d="M22.4,22.2 C22.4,21.75 22.75,21.4 23.2,21.4 C23.65,21.4 24,21.75 24,22.15 C24,22.6 23.65,23 23.2,23 C22.75,23 22.4,22.65 22.4,22.2 Z" id="Shape"></path>
                    <path d="M25.55,24.25 C25.55,24.6 25.25,24.9 24.85,24.9 C24.5,24.9 24.15,24.55 24.15,24.2 C24.15,23.8 24.45,23.55 24.85,23.55 C25.3,23.55 25.55,23.85 25.55,24.25 Z" id="Shape"></path>
                    <path d="M9.55,18 C9.9,18 10.2,18.3 10.2,18.7 C10.2,19.1 9.9,19.4 9.5,19.4 C9.15,19.4 8.85,19.1 8.8,18.7 C8.8,18.3 9.15,18 9.55,18 Z" id="Shape"></path>
                    <path d="M22,7.5 C22.4,7.5 22.7,7.8 22.7,8.15 C22.7,8.55 22.4,8.85 22,8.85 C21.6,8.85 21.3,8.55 21.35,8.15 C21.3,7.75 21.6,7.45 22,7.5 Z" id="Shape"></path>
                </g>
            </g>
            <g id="cdmymF.tif" transform="translate(291.500000, 26.000000)" fill="#FFFFFF">
                <g id="Group">
                    <path d="M0.05,12.7 C0.25,12.2 0.45,11.65 0.6,11.1 C0.95,10.1 1.3,9.15 1.6,8.15 C1.65,8.05 1.65,8 1.8,8 C5.95,8 10.05,8 14.2,8 C14.25,8 14.25,8 14.3,8 C14.15,8.5 13.95,9 13.8,9.5 C13.45,10.5 13.1,11.55 12.75,12.55 C12.7,12.7 12.65,12.75 12.45,12.75 C8.3,12.75 4.2,12.75 0.05,12.75 C0.05,12.75 0.05,12.7 0.05,12.7 Z" id="Shape"></path>
                    <path d="M7.55,0.15 C15.35,0.15 23.15,0.15 30.95,0.15 C31.05,0.15 31.15,0.15 31.2,0.15 C32.05,0.15 32.8,0.4 33.45,0.95 C34.2,1.55 34.55,2.35 34.7,3.25 C34.8,4 34.7,4.75 34.45,5.45 C33.35,8.75 32.3,12.05 31.2,15.35 C30.8,16.55 30,17.55 29.1,18.45 C28.15,19.35 27.05,20 25.8,20.35 C25.4,20.45 25,20.5 24.6,20.55 C24.5,20.55 24.45,20.55 24.35,20.55 C16.6,20.55 8.9,20.55 1.15,20.55 C1.1,20.55 0.95,20.6 0.95,20.45 C1.5,18.85 2,17.25 2.5,15.65 C2.55,15.5 2.6,15.45 2.75,15.45 C9.65,15.45 16.6,15.45 23.5,15.45 C23.7,15.45 23.75,15.4 23.85,15.2 C24.85,12.2 25.8,9.2 26.8,6.15 C26.9,5.85 27,5.5 27.1,5.15 C20,5.15 12.95,5.15 5.9,5.15 C6,4.8 6.1,4.5 6.2,4.15 C6.65,2.9 7.1,1.55 7.55,0.15 Z" id="Shape"></path>
                </g>
            </g>
            <g id="Group" transform="translate(387.000000, 251.500000)" fill="#FFFFFF">
                <path d="M34.55,6.6 C34.45,6.8 34.5,7.05 34.45,7.3 C34.3,9.45 33.95,11.55 33.4,13.65 C32.5,17.1 31.05,20.35 29.15,23.35 C28.5,24.4 27.75,25.4 27,26.35 C26.95,26.4 26.95,26.45 26.85,26.45 C26.85,26.1 26.9,25.8 26.9,25.45 C27,24.2 26.8,23 26.35,21.8 C25.5,19.5 23.95,17.85 21.9,16.55 C19.75,15.25 18.55,13.35 18.2,10.85 C17.85,8.15 18.65,5.8 20.6,3.9 C21.95,2.6 23.55,1.95 25.4,1.75 C26.95,1.6 28.4,1.95 29.85,2.55 C31.45,3.2 33.05,3.95 34.55,4.8 C34.55,5.05 34.55,5.25 34.55,5.5 C34.5,5.6 34.55,5.75 34.5,5.85 C34.5,5.95 34.5,6.05 34.5,6.15 C34.5,6.25 34.45,6.35 34.55,6.45 C34.55,6.5 34.55,6.55 34.55,6.6 Z" id="Shape"></path>
                <path d="M23,0.7 C22.9,0.8 22.8,0.8 22.7,0.85 C19.35,2.25 17.4,4.7 16.7,8.25 C16.6,8.9 16.6,9.55 16.55,10.2 C16.35,14 13.4,17.15 9.65,17.7 C6.1,18.2 2.8,16.4 1.25,13.2 C0.95,12.6 0.85,11.9 0.75,11.25 C0.35,9.2 0.15,7.1 0.15,5 C0.15,4.85 0.2,4.75 0.35,4.65 C3.85,2.65 7.55,1.35 11.5,0.65 C13.7,0.25 15.95,0.1 18.2,0.15 C19.75,0.2 21.3,0.3 22.85,0.55 C22.85,0.65 22.95,0.65 23,0.7 Z" id="Shape"></path>
                <path d="M2.5,17.2 C2.6,17.3 2.75,17.35 2.85,17.45 C4.7,18.8 6.75,19.4 9.05,19.3 C10.6,19.25 12,18.8 13.35,18.05 C14.6,17.35 16,17 17.45,17 C21.1,17 24.25,19.45 25.2,23 C25.7,24.95 25.45,26.85 24.6,28.65 C24.2,29.5 23.55,30.1 22.9,30.7 C21.3,32.1 19.55,33.35 17.7,34.45 C17.5,34.6 17.35,34.55 17.15,34.45 C15.6,33.55 14.15,32.5 12.75,31.35 C8.85,28.15 5.8,24.25 3.6,19.75 C3.25,19 2.9,18.25 2.6,17.45 C2.5,17.35 2.45,17.3 2.5,17.2 C2.45,17.2 2.45,17.2 2.5,17.2 Z" id="Shape"></path>
            </g>
            <circle id="Oval" fill="#FEAE32" cx="223.25" cy="184.95" r="4.45"></circle>
            <circle id="Oval" fill="#59A6F6" cx="232.4" cy="222.15" r="3.4"></circle>
            <circle id="Oval" fill="#1642F7" cx="284.25" cy="256.7" r="7.7"></circle>
            <circle id="Oval" fill="#FCD873" cx="335.6" cy="246.9" r="4.45"></circle>
            <circle id="Oval" fill="#EDEDEE" cx="389.45" cy="187.75" r="7.4"></circle>
            <circle id="Oval" fill="#13B4A5" cx="360.35" cy="105.3" r="4.35"></circle>
            <circle id="Oval" fill="#0223E5" cx="319.55" cy="90.8" r="6.75"></circle>
            <circle id="Oval" fill="#9EA0A3" cx="245.5" cy="126.9" r="7.05"></circle>
            <circle id="Oval" fill="#1ED596" cx="248.85" cy="199.35" r="9.45"></circle>
        </g>
    </g>
</svg>