<svg viewBox="0 0 318 264" xmlns="http://www.w3.org/2000/svg"><g id="Page-1" fill="none" fill-rule="evenodd"><g id="Homepage-white_screen" transform="translate(-124 -124)"><g id="v2" transform="translate(115 124)"><path d="M179.37 224.864h-1.613l-3.666-5.681v5.681h-1.807v-9.256h1.612l3.666 5.668v-5.668h1.807v9.256zm8.527-6.955c.104.511.156 1.287.156 2.327s-.052 1.816-.156 2.327c-.104.511-.368.98-.793 1.404-.65.65-1.473.975-2.47.975-1.005 0-1.833-.325-2.483-.975-.424-.425-.686-.89-.786-1.398-.1-.507-.15-1.284-.15-2.333 0-1.049.05-1.827.15-2.334.1-.507.362-.972.786-1.397.65-.65 1.478-.975 2.483-.975.997 0 1.82.325 2.47.975.425.425.69.893.793 1.404zm-1.65 2.327c0-.858-.033-1.456-.098-1.794-.065-.338-.184-.607-.358-.806-.286-.33-.671-.494-1.157-.494-.476 0-.866.165-1.17.494-.173.2-.29.468-.35.806-.061.338-.092.936-.092 1.794s.03 1.454.091 1.787c.061.334.178.6.351.8.312.338.702.507 1.17.507.477 0 .863-.169 1.157-.507.174-.208.293-.479.358-.813.065-.333.097-.925.097-1.774zm13.675 4.628h-2.093l-1.807-3.692h-1.3v3.692h-1.807v-9.256h3.627c.919 0 1.65.273 2.19.819.543.546.813 1.218.813 2.015 0 .615-.16 1.131-.48 1.547-.321.416-.724.71-1.21.884l2.067 3.991zm-2.548-5.538c.243-.225.364-.52.364-.884s-.121-.659-.364-.884c-.242-.225-.559-.338-.949-.338h-1.703v2.444h1.703c.39 0 .707-.113.95-.338zm10.14 5.538h-6.097v-9.256h6.097v1.612h-4.29v2.171h3.653v1.612h-3.653v2.249h4.29v1.612zm8.36-3.796c0 .685-.066 1.24-.196 1.664a2.9 2.9 0 0 1-.689 1.157c-.667.702-1.538 1.053-2.613 1.053-.979 0-1.802-.325-2.47-.975-.424-.425-.686-.89-.786-1.398-.1-.507-.15-1.284-.15-2.333 0-1.049.05-1.827.15-2.334.1-.507.362-.972.786-1.397.668-.65 1.491-.975 2.47-.975 1.014 0 1.814.282 2.399.845s.947 1.27 1.085 2.119h-1.82c-.208-.901-.762-1.352-1.664-1.352-.468 0-.853.165-1.157.494-.173.2-.29.468-.35.806-.061.338-.092.936-.092 1.794 0 .867.03 1.469.091 1.807.061.338.178.607.351.806.295.32.68.481 1.157.481.555 0 .984-.173 1.287-.52.278-.312.416-.724.416-1.235v-.338h-1.703v-1.521h3.497v1.352zm3.652 3.796h-1.807v-9.256h1.807v9.256zm8.138-2.73c0 .875-.32 1.562-.962 2.06-.641.499-1.464.748-2.47.748-.736 0-1.373-.093-1.91-.28a3.856 3.856 0 0 1-1.47-.942l1.17-1.17c.52.52 1.261.78 2.223.78.538 0 .947-.1 1.229-.299.282-.2.422-.485.422-.858 0-.32-.095-.576-.286-.767-.164-.156-.442-.26-.832-.312l-1.105-.169c-.78-.113-1.378-.368-1.794-.767-.442-.433-.663-1.04-.663-1.82 0-.84.29-1.519.871-2.035.581-.515 1.365-.773 2.353-.773 1.248 0 2.245.36 2.99 1.079l-1.144 1.131c-.433-.425-1.066-.637-1.898-.637-.459 0-.81.11-1.053.331-.242.221-.364.501-.364.839 0 .277.087.498.26.663.2.182.481.299.845.351l1.105.169c.789.113 1.378.355 1.768.728.477.442.715 1.092.715 1.95zm7.657-4.914h-2.418v7.644h-1.807v-7.644h-2.418v-1.612h6.643v1.612zm8.476 7.644h-2.093l-1.807-3.692h-1.3v3.692h-1.807v-9.256h3.627c.919 0 1.65.273 2.19.819.543.546.813 1.218.813 2.015 0 .615-.16 1.131-.48 1.547-.321.416-.724.71-1.21.884l2.067 3.991zm-2.548-5.538c.243-.225.364-.52.364-.884s-.121-.659-.364-.884c-.242-.225-.559-.338-.949-.338h-1.703v2.444h1.703c.39 0 .707-.113.95-.338zm11.193 5.538h-1.885l-.546-1.638h-3.289l-.559 1.638h-1.885l3.367-9.256h1.417l3.38 9.256zm-2.912-3.159l-1.13-3.367-1.17 3.367h2.3zm10.01-4.485h-2.418v7.644h-1.807v-7.644h-2.418v-1.612h6.643v1.612zm3.276 7.644h-1.807v-9.256h1.807v9.256zm8.528-6.955c.104.511.156 1.287.156 2.327s-.052 1.816-.156 2.327c-.104.511-.368.98-.793 1.404-.65.65-1.473.975-2.47.975-1.005 0-1.833-.325-2.483-.975-.424-.425-.686-.89-.786-1.398-.1-.507-.15-1.284-.15-2.333 0-1.049.05-1.827.15-2.334.1-.507.362-.972.786-1.397.65-.65 1.478-.975 2.483-.975.997 0 1.82.325 2.47.975.425.425.69.893.793 1.404zm-1.65 2.327c0-.858-.033-1.456-.098-1.794-.065-.338-.184-.607-.358-.806-.286-.33-.671-.494-1.157-.494-.476 0-.866.165-1.17.494-.173.2-.29.468-.35.806-.061.338-.092.936-.092 1.794s.03 1.454.091 1.787c.061.334.178.6.351.8.312.338.702.507 1.17.507.477 0 .863-.169 1.157-.507.174-.208.293-.479.358-.813.065-.333.097-.925.097-1.774zm10.737 4.628h-1.612l-3.666-5.681v5.681h-1.807v-9.256h1.612l3.666 5.668v-5.668h1.807v9.256z" id="No-registration" fill="#FFF" opacity=".8" transform="rotate(-45 226.358 220.236)"/><path d="M63.368 156.786h-10.5v33.36h-10.5v-33.36h-10.5v-9.36h31.5v9.36zm39.9 33.36h-12.18l-7.56-15.9h-3.54v15.9h-10.5v-42.72h16.92c4.52 0 8.08 1.35 10.68 4.05 2.6 2.7 3.9 5.93 3.9 9.69 0 2.68-.68 4.97-2.04 6.87-1.36 1.9-3 3.33-4.92 4.29l9.24 17.82zm-14.04-25.92c.84-.88 1.26-1.9 1.26-3.06 0-1.16-.42-2.17-1.26-3.03-.84-.86-1.94-1.29-3.3-1.29h-5.94v8.64h5.94c1.36 0 2.46-.42 3.3-1.26zm54.24 25.92h-10.98l-1.98-6.36h-13.14l-2.1 6.36h-10.98l15.54-42.72h8.1l15.54 42.72zm-15.72-15.12l-3.6-11.4-3.84 11.4h7.44zm51.48-15.3c.24 1.8.36 4.82.36 9.06s-.11 7.27-.33 9.09c-.22 1.82-.81 3.51-1.77 5.07-2.96 4.8-7.58 7.2-13.86 7.2h-15.84v-42.72h15.84c6.28 0 10.9 2.4 13.86 7.2.96 1.56 1.54 3.26 1.74 5.1zm-10.38 15.96c.16-1.16.24-3.46.24-6.9 0-3.44-.08-5.74-.24-6.9-.16-1.16-.46-2.06-.9-2.7-1.08-1.6-2.76-2.4-5.04-2.4h-4.62v24h4.62c2.28 0 3.96-.8 5.04-2.4.44-.64.74-1.54.9-2.7zm28.5 14.46h-10.5v-42.72h10.5v42.72zm42 0h-9.18l-13.68-21.48v21.48h-10.5v-42.72h9.18l13.68 21.48v-21.48h10.5v42.72zm40.2-18.66c0 3.52-.32 6.36-.96 8.52-.64 2.16-1.76 4.06-3.36 5.7-3.08 3.2-7.22 4.8-12.42 4.8-4.76 0-8.7-1.56-11.82-4.68-1.04-1.04-1.88-2.16-2.52-3.36-.64-1.2-1.08-2.62-1.32-4.26-.24-1.64-.39-3.04-.45-4.2-.06-1.16-.09-2.9-.09-5.22s.03-4.06.09-5.22c.06-1.16.21-2.56.45-4.2.24-1.64.68-3.06 1.32-4.26.64-1.2 1.48-2.32 2.52-3.36 3.12-3.12 7.06-4.68 11.82-4.68 5.08 0 8.98 1.36 11.7 4.08 2.72 2.72 4.38 6.08 4.98 10.08h-10.56c-.44-1.68-1.13-2.9-2.07-3.66-.94-.76-2.29-1.14-4.05-1.14-1.8 0-3.18.62-4.14 1.86-.56.72-.96 1.75-1.2 3.09-.24 1.34-.36 3.81-.36 7.41s.12 6.08.36 7.44c.24 1.36.64 2.4 1.2 3.12.92 1.2 2.3 1.8 4.14 1.8 2.08 0 3.64-.56 4.68-1.68 1.08-1.08 1.62-2.6 1.62-4.56v-.6h-6.3v-8.76h16.74v5.94z" id="TRADING" fill="#00E997" transform="rotate(-45 155.708 168.786)"/><path d="M176.127 141.296c.096.72.144 1.928.144 3.624 0 1.696-.044 2.908-.132 3.636a4.961 4.961 0 0 1-.708 2.028c-1.184 1.92-3.032 2.88-5.544 2.88h-6.336v-17.088h6.336c2.512 0 4.36.96 5.544 2.88.384.624.616 1.304.696 2.04zm-4.152 6.384c.064-.464.096-1.384.096-2.76s-.032-2.296-.096-2.76c-.064-.464-.184-.824-.36-1.08-.432-.64-1.104-.96-2.016-.96h-1.848v9.6h1.848c.912 0 1.584-.32 2.016-.96.176-.256.296-.616.36-1.08zm18.816 5.784h-11.616v-17.088h11.616v3.744h-7.416v2.856h6.336v3.744h-6.336v3h7.416v3.744zm15.384-5.424c-.304 1.824-1.036 3.208-2.196 4.152-1.16.944-2.58 1.416-4.26 1.416-1.92 0-3.504-.624-4.752-1.872a5.683 5.683 0 0 1-1.008-1.344c-.256-.48-.432-1.048-.528-1.704a18.474 18.474 0 0 1-.18-1.68 44.181 44.181 0 0 1-.036-2.088c0-.928.012-1.624.036-2.088.024-.464.084-1.024.18-1.68.096-.656.272-1.224.528-1.704s.592-.928 1.008-1.344c1.248-1.248 2.832-1.872 4.752-1.872 1.68 0 3.1.472 4.26 1.416 1.16.944 1.892 2.328 2.196 4.152h-4.272c-.336-1.216-1.064-1.824-2.184-1.824-.736 0-1.288.24-1.656.72-.224.288-.388.708-.492 1.26-.104.552-.156 1.54-.156 2.964s.052 2.412.156 2.964c.104.552.268.972.492 1.26.368.48.92.72 1.656.72 1.12 0 1.848-.608 2.184-1.824h4.272zM220 153.464h-11.616v-17.088H220v3.744h-7.416v2.856h6.336v3.744h-6.336v3H220v3.744zm16.32 0h-3.672l-5.472-8.592v8.592h-4.2v-17.088h3.672l5.472 8.592v-8.592h4.2v17.088zm15.048-13.344h-4.2v13.344h-4.2V140.12h-4.2v-3.744h12.6v3.744zm15.96 13.344h-4.872l-3.024-6.36h-1.416v6.36h-4.2v-17.088h6.768c1.808 0 3.232.54 4.272 1.62s1.56 2.372 1.56 3.876c0 1.072-.272 1.988-.816 2.748-.544.76-1.2 1.332-1.968 1.716l3.696 7.128zm-5.616-10.368c.336-.352.504-.76.504-1.224 0-.464-.168-.868-.504-1.212-.336-.344-.776-.516-1.32-.516h-2.376v3.456h2.376c.544 0 .984-.168 1.32-.504zm21.696 10.368h-4.392l-.792-2.544h-5.256l-.84 2.544h-4.392l6.216-17.088h3.24l6.216 17.088zm-6.288-6.048l-1.44-4.56-1.536 4.56h2.976zm19.392 6.048h-11.376v-17.088h4.2v13.344h7.176v3.744zm6.648 0h-4.2v-17.088h4.2v17.088zm14.04 0h-11.592V150.2l6.552-10.08h-6.264v-3.744H317.2v3.264l-6.576 10.08h6.576v3.744zm14.064 0h-11.616v-17.088h11.616v3.744h-7.416v2.856h6.336v3.744h-6.336v3h7.416v3.744zm15.552-12.168c.096.72.144 1.928.144 3.624 0 1.696-.044 2.908-.132 3.636a4.961 4.961 0 0 1-.708 2.028c-1.184 1.92-3.032 2.88-5.544 2.88h-6.336v-17.088h6.336c2.512 0 4.36.96 5.544 2.88.384.624.616 1.304.696 2.04zm-4.152 6.384c.064-.464.096-1.384.096-2.76s-.032-2.296-.096-2.76c-.064-.464-.184-.824-.36-1.08-.432-.64-1.104-.96-2.016-.96h-1.848v9.6h1.848c.912 0 1.584-.32 2.016-.96.176-.256.296-.616.36-1.08z" id="DECENTRALIZED" fill="#FFF" transform="rotate(-45 255.255 144.92)"/><path d="M28.908 117.477c0 5.585-2.088 9.96-6.263 13.125-4.176 3.164-9.401 4.747-15.678 4.747-4.68 0-8.762-.546-12.246-1.636-3.484-1.09-6.582-3.045-9.295-5.864l8.936-8.936c2.66 2.66 6.888 3.99 12.685 3.99 5.425 0 8.138-1.702 8.138-5.106 0-1.437-.372-2.553-1.117-3.351-.798-.798-2.048-1.303-3.75-1.516l-6.861-.958c-5.053-.744-8.856-2.42-11.409-5.026-2.606-2.66-3.91-6.462-3.91-11.409 0-5.265 1.876-9.574 5.625-12.924 3.75-3.351 8.79-5.027 15.12-5.027 8.243 0 14.626 2.26 19.147 6.782l-8.776 8.776c-1.383-1.383-2.886-2.287-4.508-2.713-1.622-.425-3.71-.638-6.263-.638-2.234 0-3.936.532-5.106 1.596-1.17 1.063-1.755 2.287-1.755 3.67 0 1.01.372 1.888 1.117 2.632.904.905 2.207 1.463 3.91 1.676l6.86.957c5 .692 8.723 2.26 11.17 4.707 2.82 2.766 4.229 6.915 4.229 12.446zm47.71-26.966H62.655v44.359H48.694V90.511H34.732V78.065h41.885V90.51zm54.49 44.359h-14.6l-2.632-8.457H96.404l-2.793 8.457h-14.6l20.664-56.805h10.77l20.664 56.805zm-20.902-20.105l-4.787-15.159-5.106 15.159h9.893zm71.565 20.105h-16.196l-10.053-21.142h-4.707v21.142h-13.962V78.065h22.499c6.01 0 10.744 1.795 14.201 5.385 3.457 3.59 5.186 7.885 5.186 12.885 0 3.564-.904 6.609-2.713 9.135-1.808 2.527-3.989 4.428-6.542 5.705l12.287 23.695zm-18.67-34.466c1.118-1.17 1.676-2.526 1.676-4.069 0-1.542-.558-2.885-1.675-4.029-1.117-1.143-2.58-1.715-4.388-1.715h-7.899v11.488h7.899c1.808 0 3.27-.558 4.388-1.675zm64.305-9.893h-13.962v44.359h-13.962V90.511H185.52V78.065h41.886V90.51z" id="START" fill="#00E997" transform="rotate(-45 106.416 106.467)"/><path d="M284.33 181.85h-1.489l-3.384-5.243v5.244h-1.668v-8.544h1.488l3.384 5.232v-5.232h1.668v8.544zm7.871-6.42c.096.473.144 1.189.144 2.149s-.048 1.676-.144 2.148c-.096.472-.34.904-.732 1.296-.6.6-1.36.9-2.28.9-.928 0-1.692-.3-2.292-.9-.392-.392-.634-.822-.726-1.29-.092-.468-.138-1.186-.138-2.154s.046-1.686.138-2.154c.092-.468.334-.898.726-1.29.6-.6 1.364-.9 2.292-.9.92 0 1.68.3 2.28.9.392.392.636.824.732 1.296zm-1.524 2.149c0-.792-.03-1.344-.09-1.656-.06-.312-.17-.56-.33-.744-.264-.304-.62-.456-1.068-.456-.44 0-.8.152-1.08.456-.16.184-.268.432-.324.744-.056.312-.084.864-.084 1.656 0 .792.028 1.342.084 1.65.056.308.164.554.324.738.288.312.648.468 1.08.468.44 0 .796-.156 1.068-.468.16-.192.27-.442.33-.75s.09-.854.09-1.638zm11.7 4.272h-5.544v-8.544h1.668v7.056h3.876v1.488zm3.024 0h-1.668v-8.544h1.668v8.544zm9.732 0h-1.668v-4.98l-1.632 3.24h-1.128l-1.644-3.24v4.98h-1.668v-8.544h1.644l2.232 4.62 2.22-4.62h1.644v8.544zm3.66 0h-1.668v-8.544h1.668v8.544zm7.488-7.056h-2.232v7.056h-1.668v-7.056h-2.232v-1.488h6.132v1.488zm6.876 4.536c0 .808-.296 1.442-.888 1.902-.592.46-1.352.69-2.28.69-.68 0-1.268-.086-1.764-.258a3.559 3.559 0 0 1-1.356-.87l1.08-1.08c.48.48 1.164.72 2.052.72.496 0 .874-.092 1.134-.276.26-.184.39-.448.39-.792 0-.296-.088-.532-.264-.708-.152-.144-.408-.24-.768-.288l-1.02-.156c-.72-.104-1.272-.34-1.656-.708-.408-.4-.612-.96-.612-1.68 0-.776.268-1.402.804-1.878s1.26-.714 2.172-.714c1.152 0 2.072.332 2.76.996l-1.056 1.044c-.4-.392-.984-.588-1.752-.588-.424 0-.748.102-.972.306a1.002 1.002 0 0 0-.336.774c0 .256.08.46.24.612.184.168.444.276.78.324l1.02.156c.728.104 1.272.328 1.632.672.44.408.66 1.008.66 1.8z" id="NO-LIMITS" fill="#FFF" opacity=".4" transform="rotate(-45 305.473 177.579)"/><path d="M271.466 236.519h-1.86l-4.233-6.559v6.559h-2.086v-10.686h1.86l4.233 6.544v-6.544h2.086v10.686zm9.846-8.03c.12.59.18 1.486.18 2.687 0 1.2-.06 2.096-.18 2.686-.12.59-.425 1.131-.916 1.621-.75.75-1.7 1.126-2.851 1.126-1.16 0-2.116-.375-2.867-1.126-.49-.49-.793-1.028-.908-1.613-.115-.585-.172-1.483-.172-2.694 0-1.21.057-2.109.172-2.694.115-.585.418-1.123.908-1.613.75-.75 1.706-1.126 2.867-1.126 1.15 0 2.101.375 2.851 1.126.49.49.796 1.03.916 1.62zm-1.906 2.687c0-.99-.038-1.681-.113-2.071-.075-.39-.212-.7-.412-.93-.33-.38-.776-.571-1.336-.571-.55 0-1 .19-1.351.57-.2.23-.335.54-.405.93-.07.391-.105 1.081-.105 2.072 0 .99.035 1.678.105 2.064.07.385.205.693.405.923.36.39.81.585 1.35.585.551 0 .996-.195 1.337-.585.2-.24.337-.553.412-.938.075-.386.113-1.068.113-2.049zm16.344 5.343h-2.431l-2.747-4.863-1.38 1.651v3.212h-2.087v-10.686h2.086v4.653l3.767-4.653h2.537l-3.542 4.247 3.797 6.439zm8.63-10.686l-3.212 6.303v4.383h-2.071v-4.383l-3.212-6.303h2.266l1.996 4.307 1.967-4.307h2.266zm8.795 7.4c-.19 1.09-.636 1.925-1.336 2.506-.7.58-1.56.87-2.581.87-1.141 0-2.097-.375-2.867-1.126-.49-.49-.793-1.028-.908-1.613-.115-.585-.173-1.483-.173-2.694 0-1.21.058-2.109.173-2.694.115-.585.418-1.123.908-1.613.77-.75 1.726-1.126 2.867-1.126 1.02 0 1.88.29 2.581.87.7.58 1.146 1.416 1.336 2.507h-2.131c-.24-1.01-.836-1.516-1.786-1.516-.57 0-1.016.185-1.336.555-.2.23-.338.543-.413.938-.075.396-.112 1.088-.112 2.079 0 .99.037 1.683.112 2.079.075.395.213.708.413.938.32.37.765.555 1.336.555.96 0 1.56-.505 1.8-1.516h2.117z" id="NO-KYC" fill="#FFF" opacity=".3" transform="rotate(-45 288.23 231.176)"/></g></g></g></svg>