<?xml version="1.0" encoding="UTF-8" standalone="no"?>
<svg id="svg2" xmlns:rdf="http://www.w3.org/1999/02/22-rdf-syntax-ns#" xmlns="http://www.w3.org/2000/svg" viewBox="0 0 130 130" height="130" width="130" version="1.1" enable-background="new 0 0 342 342" xmlns:cc="http://creativecommons.org/ns#" xmlns:dc="http://purl.org/dc/elements/1.1/">
 <g id="e-icon-flower__main-logo" transform="translate(.099998 0.6)">
  <g id="e-icon-flower__main-logo-inner">
   <circle id="e-icon-flower__Oval" cx="64.9" cy="64.4" r="64.3" style="fill:#1ed596"/>
   <circle id="e-icon-flower__Oval_1_" cx="64.9" cy="64.4" r="55.3" style="fill:#2eeba9"/>
   <path id="e-icon-flower__Shape_94_" style="fill:#66ffc4" d="m64.9 52.8v-34.4c-0.6 0-1.2 0.3-1.5 0.9l-28.3 46.6v0.2c0-0.1 0.2-0.1 0.3-0.2l29.5-13.1z"/>
   <path id="e-icon-flower__Shape_95_" style="fill:#04bf7c" d="m64.9 52.8v-34.4c0.6 0 1.2 0.3 1.5 0.9 0 0 28.5 46.9 28.4 46.9l-29.9-13.4z"/>
   <path id="e-icon-flower__Shape_96_" style="fill:#05ad6d" d="m94.5 65.9-29.6-13.1v32.7c0.1 0 0.2 0 0.3-0.1l28.9-17.3c0.5-0.3 0.8-0.8 0.8-1.4 0-0.3-0.1-0.5-0.2-0.7 0 0-0.1-0.1-0.2-0.1z"/>
   <path id="e-icon-flower__Shape_97_" style="fill:#66ffc4" d="m35.2 71.8 28.8 38.1c0.2 0.3 0.6 0.4 1 0.4v-20.8l-29.8-17.7z"/>
   <path id="e-icon-flower__Shape_98_" style="fill:#04bf7c" d="m65.8 109.9 28.8-38.2-29.7 17.9v20.8c0.4 0 0.7-0.1 0.9-0.5z"/>
   <path id="e-icon-flower__Shape_99_" style="fill:#09d385" d="m64.9 52.8-29.6 13.1c-0.1 0-0.1 0.1-0.3 0.2-0.4 0.8-0.1 1.7 0.5 2.2l29 17.3c0.1 0 0.2 0.1 0.3 0.1v-32.9z"/>
  </g>
 </g>
</svg>
