<?xml version="1.0" encoding="UTF-8" standalone="no"?>
<svg id="svg2" xmlns:rdf="http://www.w3.org/1999/02/22-rdf-syntax-ns#" xmlns="http://www.w3.org/2000/svg" viewBox="0 0 72 72" height="72" width="72" version="1.1" enable-background="new 0 0 342 342" xmlns:cc="http://creativecommons.org/ns#" xmlns:dc="http://purl.org/dc/elements/1.1/">
 <defs id="defs4">
  <linearGradient id="linearGradient-5" y2="-5.5485" gradientUnits="userSpaceOnUse" y1="41.413" x2="35.642" x1="-15.265">
   <stop id="stop27" stop-color="#1642F7" offset="0"/>
   <stop id="stop29" stop-color="#45A5F1" offset="1"/>
  </linearGradient>
 </defs>
 <g id="e-icon-flower__logo-7">
  <g id="g103" transform="translate(23,18)">
   <circle id="e-icon-flower__logo-bg-7" cx="13" style="fill:url(#linearGradient-5)" r="36" cy="18"/>
   <path id="Combined-Shape" style="fill:#ffffff" d="m12.065 18.983c-1.8385-0.43938-3.2053-2.0932-3.2053-4.0664 0-2.3089 1.8718-4.1807 4.1807-4.1807s4.1807 1.8718 4.1807 4.1807c0 1.9228-1.298 3.5423-3.0655 4.0303l3.5479 6.0999h-9.1654l3.5269-6.0639zm-16.23-9.4527c4.5023-8.3615 12.301-11.577 20.904-10.371 8.147 1.9291 13.158 7.2623 15.034 15.999l-14.874 5.4671c-0.3752-0.69679-0.56279-1.0452-0.56279-1.0452 2.4656-1.7688 3.0819-4.1807 1.8492-7.2359l4.3415-1.608c-5.306-6.9944-14.23-5.7884-18.331-1.0449-4.0836-0.1727-8.361-0.0804-8.361-0.1608zm34.33 16.72c-4.502 8.043-11.497 11.822-20.502 10.616-8.5217-2.037-13.667-7.184-15.436-15.44 8.951-3.321 13.426-5.008 13.426-5.062 0.32159 2.4924 2.1707 3.2963 2.1707 3.2963 0 0.0536-0.85758 1.6348-2.5727 4.7435-2.3583 0.85759-3.5375 1.2864-3.5375 1.2864 5.3867 6.4319 13.989 5.3063 18.09 0.56279 4.084 0.17274 8.3614-0.0841 8.3614-0.004z"/>
  </g>
 </g>
</svg>
