<?xml version="1.0" encoding="UTF-8" standalone="no"?>
<svg id="svg2" xmlns:rdf="http://www.w3.org/1999/02/22-rdf-syntax-ns#" xmlns="http://www.w3.org/2000/svg" viewBox="0 0 72 72" height="72" width="72" version="1.1" enable-background="new 0 0 342 342" xmlns:cc="http://creativecommons.org/ns#" xmlns:dc="http://purl.org/dc/elements/1.1/">
 <g id="e-icon-flower__logo-3">
  <g id="g60" transform="translate(24,23)">
   <circle id="e-icon-flower__logo-bg-3" cx="12" style="fill:#000000" r="36" cy="13"/>
   <g id="Group-10" transform="translate(-10.979 4.3411)">
    <g id="Group-11" transform="translate(39.69)">
     <path id="Combined-Shape-Copy" style="fill:#f3df00" d="m4.1582 3.4706-0.6868 0.6567 1.808 1.8404 0.6987-0.6781-1.8199-1.819zm-1.3619 0.6887-0.6566-0.6868-1.8405 1.808 0.67808 0.6987 1.819-1.8199zm3.1663-3.1663-0.6566-0.68679-1.8404 1.808 0.678 0.6987 1.819-1.8199zm-4.9707-0.68869-0.68653 0.65635 1.808 1.8404 0.6984-0.6777-1.8198-1.819zm2.149 2.1489-0.68 0.666 0.6691 0.6954 0.6912-0.6818-0.6803-0.6796z"/>
     <path id="path107" style="fill:#000000" d="m4.1582 3.4706-0.6868 0.6567 1.808 1.8404 0.6987-0.6781-1.8199-1.819zm0.0032-0.2846 2.1067 2.1058-0.9921 0.9628-2.0944-2.1319 0.9798-0.9367zm-1.3651 0.9733-0.6566-0.6868-1.8405 1.808 0.67808 0.6987 1.819-1.8199zm0.2846 0.0032-2.1058 2.1068-0.96284-0.9922 2.1319-2.0944 0.9367 0.9798zm2.8817-3.1695-0.6566-0.68679-1.8404 1.808 0.678 0.6987 1.819-1.8199zm0.2846 0.00316-2.1057 2.1068-0.9629-0.9922 2.1319-2.0944 0.9367 0.97975zm-5.2553-0.69185-0.68653 0.65635 1.808 1.8404 0.6984-0.6777-1.8198-1.819zm0.00316-0.28462 2.1068 2.1057-0.9919 0.9626-2.0944-2.1319 0.97952-0.93642zm2.1459 2.4335-0.68 0.666 0.6691 0.6954 0.6912-0.6818-0.6803-0.6796zm0.0014-0.2863 0.9678 0.9668-0.9839 0.9706-0.9518-0.9893 0.9679-0.9481z"/>
    </g>
    <path id="path109" style="fill:#ffffff" d="m33.584 7.9381v7.3274h1.6283c2.0234 0 3.6637-1.6403 3.6637-3.6637s-1.6403-3.6637-3.6637-3.6637h-1.6283zm-31.752-1.8319h2.0354c2.4731 0 4.4779 2.0048 4.4779 4.4779s-2.0048 4.4779-4.4779 4.4779h-2.0354v2.0354h-1.8319v-10.991h1.8319zm19.313 0 0.01895-0.013268 6.5173 8.0586v-8.0454h1.8319v10.991h-1.8319v-0.03965l-6.5133-8.0536v8.0932h-1.8319v-10.991h1.8088zm-10.154-0.1018v6.9204c0 1.4051 1.1391 2.5442 2.5442 2.5442s2.5442-1.1391 2.5442-2.5442v-6.9204h1.8319v6.9204c0 2.4169-1.9592 4.3761-4.3761 4.3761s-4.3761-1.9592-4.3761-4.3761v-6.9204h1.8319zm20.761 0.10177h3.4602c3.0351 0 5.4956 2.4605 5.4956 5.4956s-2.4605 5.4956-5.4956 5.4956h-3.4602v-10.991zm-29.92 1.4248v5.9027h1.7301c1.63 0 2.9513-1.3214 2.9513-2.9513 0-1.63-1.3214-2.9513-2.9513-2.9513h-1.7301zm40.097-1.4248h1.8319v10.991h-1.8319v-10.991z"/>
   </g>
  </g>
 </g>
</svg>
