<?xml version="1.0" encoding="UTF-8" standalone="no"?>
<svg id="svg2" xmlns:rdf="http://www.w3.org/1999/02/22-rdf-syntax-ns#" xmlns="http://www.w3.org/2000/svg" viewBox="0 0 72 72" height="72" width="72" version="1.1" enable-background="new 0 0 342 342" xmlns:cc="http://creativecommons.org/ns#" xmlns:dc="http://purl.org/dc/elements/1.1/">
 <defs id="defs4">
  <linearGradient id="linearGradient-7" y2="60" gradientUnits="userSpaceOnUse" y1="-12" x2="-12" x1="60">
   <stop id="stop37" stop-color="#F48B1D" offset="0"/>
   <stop id="stop39" stop-color="#F7CD6B" offset="1"/>
  </linearGradient>
 </defs>
 <g id="e-icon-flower__logo-4">
  <g id="g71" transform="translate(12,12)">
   <circle id="e-icon-flower__logo-bg-4" cx="24" style="fill:url(#linearGradient-7)" r="36" cy="24"/>
   <g id="Group 9" transform="translate(4 4.0271)">
    <path id="Combined Shape-3" style="fill-rule:evenodd;clip-rule:evenodd;fill:#ffffff" d="m20.018 0c-11.036 0-22.346 9.8257-19.602 24.949 0 0 0.58991 1.6888 1.5339 1.4105 0.8021-0.236 0.6528-0.995 0.5165-1.687-0.0242-0.123-0.048-0.244-0.066-0.359-2.1101-13.535 7.7316-22.23 17.618-22.23 9.8854 0 17.899 8.0136 17.899 17.899 0 9.8853-8.9762 19.153-20.976 17.824-0.0607-0.0067-0.1228-0.0148-0.1857-0.0236-0.0481-0.0068-0.0968-0.0139-0.1458-0.0211-0.6984-0.1024-1.4557-0.2134-1.6687 0.6649-0.2475 1.0202 1.5339 1.4105 1.5339 1.4105 14.339 1.273 23.525-8.82 23.525-19.856s-8.946-19.982-19.982-19.982zm14.49 24.227s0.4584-1.8153-0.3921-2.047c-0.8503-0.2317-1.4452 0.8034-1.6597 1.6561-1.2711 5.0533-6.2706 9.1207-12.494 9.1207-7.1316 0-12.913-5.7665-12.913-12.88 0-7.1132 5.7814-12.88 12.913-12.88 4.4642 0 7.5476 1.4097 10.326 4.8242 0.554 0.6811 1.3292 1.4634 2.007 1.0001 0.6776-0.4634-0.2464-2.1211-0.2464-2.1211-3.403-3.9816-6.769-5.786-12.087-5.786-8.2853 0-15.002 6.6992-15.002 14.963 0 8.2639 6.7165 14.963 15.002 14.963 7.3173 0 12.461-4.259 14.546-10.813zm-18.068 2.1224c-0.7716-0.8201-1.3262-1.8967-1.3909-2.5783-0.0412-0.3951-0.0493-2.6953-0.027-7.1033h-1.8226c-0.5753 0-1.0418-0.4664-1.0418-1.0418 0-0.5753 0.4665-1.0417 1.0418-1.0417h1.8344c0.0029-0.476 0.0062-0.9712 0.0096-1.4856 0.0039-0.5754 0.4735-1.0386 1.0488-1.0347s1.0386 0.4734 1.0347 1.0487c-0.0035 0.5083-0.0067 0.9988-0.0096 1.4716h6.4994c0.5754 0 1.0418 0.4664 1.0418 1.0417 0 0.5754-0.4664 1.0418-1.0418 1.0418h-6.511c-0.0209 4.2344-0.0147 6.5975 0.0165 6.8966 0.0179 0.1887 0.3596 0.8519 0.8351 1.3574 0.6751 0.7176 1.5314 1.1152 2.5931 1.0786l0.4042-0.0139c0.15-0.0199 0.3166-0.0513 0.487-0.0943 0.6139-0.1552 1.1512-0.4259 1.5239-0.8085 0.4015-0.4121 1.061-0.4207 1.4731-0.0192s0.4207 1.061 0.0193 1.4731c-0.6745 0.6923-1.5481 1.1325-2.5058 1.3745-0.3371 0.0852-0.667 0.1401-0.9587 0.1658-0.1243 0.011-0.2387 0.0163-0.3347 0.0155-0.0528-0.0005-0.1021-0.0027-0.1524-0.0079-1.6462 0.0252-3.0252-0.6293-4.0664-1.7361z"/>
   </g>
  </g>
 </g>
</svg>
