<?xml version="1.0" encoding="UTF-8" standalone="no"?>
<svg id="svg2" xmlns:rdf="http://www.w3.org/1999/02/22-rdf-syntax-ns#" xmlns="http://www.w3.org/2000/svg" viewBox="0 0 72 72" height="72" width="72" version="1.1" enable-background="new 0 0 342 342" xmlns:cc="http://creativecommons.org/ns#" xmlns:dc="http://purl.org/dc/elements/1.1/">
 <g id="e-icon-flower__logo-8">
  <g id="g114" transform="translate(18.5,19)">
   <circle id="e-icon-flower__logo-bg-8" cx="17.5" style="fill:#ffffff" r="36" cy="17"/>
   <g id="Group-8" transform="translate(-2 -5.1319)">
    <path id="Polygon" style="fill:#009ed5" d="m20.696 0.45143 16.981 9.8042c0.74028 0.4274 1.1963 1.2173 1.1963 2.0721v19.608c0 0.85481-0.45604 1.6447-1.1963 2.0721l-16.981 9.8042c-0.74028 0.4274-1.6524 0.4274-2.3926 0l-16.981-9.804c-0.73996-0.427-1.196-1.217-1.196-2.072v-19.608c0-0.85481 0.45603-1.6447 1.1963-2.0721l16.982-9.8046c0.74028-0.4274 1.6524-0.4274 2.3926 0z"/>
    <path id="path125" style="fill:#ffffff" d="m19.729 24.455c0.63277 0.3575 0.85593 1.1603 0.49843 1.793-0.3575 0.63277-1.1603 0.85593-1.793 0.49843l-10.587-5.981c-0.4136-0.233-0.6691-0.671-0.6691-1.145v-4.0688c0-0.47228 0.25309-0.90835 0.66316-1.1426l10.887-6.2193c0.40545-0.23163 0.90328-0.23106 1.3082 0.0015l11.245 6.4588c0.4086 0.23468 0.66055 0.66992 0.66055 1.1411v4.0688c0 0.72678-0.58917 1.316-1.316 1.316-0.72678 0-1.316-0.58917-1.316-1.316v-3.3071l-9.9312-5.7039-9.5688 5.4667v2.5371l9.9188 5.6038zm-0.57683-5.1255c-0.63277-0.3575-0.85593-1.1603-0.49843-1.793 0.3575-0.63277 1.1603-0.85593 1.793-0.49843l10.587 5.9816c0.41316 0.23342 0.66864 0.6712 0.66864 1.1457v4.5474c0 0.47228-0.25309 0.90835-0.66316 1.1426l-10.887 6.2195c-0.40545 0.23163-0.90328 0.23106-1.3082-0.0015l-11.246-6.459c-0.4084-0.235-0.6603-0.67-0.6603-1.141v-4.0688c0-0.72678 0.58917-1.316 1.316-1.316 0.72678 0 1.316 0.58917 1.316 1.316v3.3071l9.9312 5.7039 9.5688-5.4667v-3.0156l-9.9188-5.6038z"/>
   </g>
  </g>
 </g>
</svg>
