<?xml version="1.0" encoding="UTF-8" standalone="no"?>
<svg id="svg2" xmlns:rdf="http://www.w3.org/1999/02/22-rdf-syntax-ns#" xmlns="http://www.w3.org/2000/svg" viewBox="0 0 72 72" height="72" width="72" version="1.1" enable-background="new 0 0 342 342" xmlns:cc="http://creativecommons.org/ns#" xmlns:dc="http://purl.org/dc/elements/1.1/">
 <g id="e-icon-flower__logo-1">
  <g id="e-icon-flower__circle-item" transform="translate(18.5,26)">
   <circle id="e-icon-flower__logo-bg-1" cx="17.5" style="fill:#008290" r="36" cy="10"/>
   <g id="Group 5" transform="translate(-.5 -3.1205)">
    <path id="Combined Shape-2" style="fill-rule:evenodd;clip-rule:evenodd;fill:#ffffff" d="m0 0.084394c8.8655-0.84165 15.263 4.7349 16.269 11.243 0.0918 0.5931 0.1388 1.1939 0.1388 1.7983 0 0.6978-0.0598 1.3902-0.1768 2.0711-1.096 6.38-7.2138 11.744-16.231 10.97l1.8367-3.857-1.8367-22.225zm0-0.0000014 1.5918 3.7959c5.4142 0 9.2963 3.189 10.122 7.4578 0.108 0.5584 0.1638 1.1353 0.1638 1.7259 0 0.7357-0.089 1.4527-0.2586 2.1408-1.0071 4.0871-4.8565 7.1565-9.7823 7.1041l-1.8365-22.224zm36 0-1.5919 3.7959c-5.3914 0-9.2636 3.1622-10.111 7.404-0.1149 0.5751-0.1743 1.1701-0.1743 1.7797 0 0.7258 0.0866 1.4333 0.2518 2.1129 0.9964 4.101 4.8521 7.1845 9.7891 7.132l1.836-22.225zm-1.837 22.225 1.837 3.857c-9.027 0.775-15.148-4.601-16.235-10.99-0.115-0.674-0.173-1.36-0.173-2.051 0-0.6219 0.0497-1.2401 0.1468-1.85 1.032-6.4851 7.419-12.03 16.261-11.191l-1.837 22.225z"/>
    <path id="Path-9" style="fill-rule:evenodd;clip-rule:evenodd;fill:#ffffff" transform="translate(7.102 11.288)" d="m1.5918 0h3 4.5918 3.4898 4.5306 4.3469l-1.7143 3.9184h-2.5714-4.5918-3.551-4.5918-4.5312l1.5918-3.9184z"/>
   </g>
  </g>
 </g>
</svg>
