<?xml version="1.0" encoding="UTF-8" standalone="no"?>
<svg id="svg2" xmlns:rdf="http://www.w3.org/1999/02/22-rdf-syntax-ns#" xmlns="http://www.w3.org/2000/svg" viewBox="0 0 72 72" height="72" width="72" version="1.1" enable-background="new 0 0 342 342" xmlns:cc="http://creativecommons.org/ns#" xmlns:dc="http://purl.org/dc/elements/1.1/">
 <defs id="defs4">
  <linearGradient id="linearGradient-6" y2="53" gradientUnits="userSpaceOnUse" y1="-19" x2="17" x1="17">
   <stop id="stop32" stop-color="#648BB4" offset="0"/>
   <stop id="stop34" stop-color="#366799" offset="1"/>
  </linearGradient>
 </defs>
 <g id="e-icon-flower__logo-5">
  <g id="g84" transform="translate(19,19)">
   <circle id="e-icon-flower__logo-bg-5" cx="17" style="fill:url(#linearGradient-6)" r="36" cy="17"/>
   <path id="Combined Shape" style="fill-rule:evenodd;clip-rule:evenodd;fill:#ffffff" d="m32.433 9.7421c1.679-0.5688 2.888-2.1578 2.888-4.0291 0-2.3489-1.904-4.253-4.253-4.253-2.3489 0-4.253 1.9041-4.253 4.253 0 1.8712 1.2084 3.4602 2.8875 4.0291-0.0688 0.17022-0.1067 0.35626-0.1067 0.55111v20.775c0 0.8131 0.65921 1.4722 1.4723 1.4722 0.81301 0 1.4721-0.6591 1.4721-1.4722v-20.775c0-0.19488-0.0378-0.38089-0.1066-0.55111zm-28.192 14.497c1.7086 0.5519 2.9445 2.1556 2.9445 4.0479 0 2.3489-1.9042 4.2531-4.2531 4.2531s-4.2531-1.904-4.2531-4.253c0-1.8923 1.2359-3.4959 2.9444-4.0479v-21.144c0-1.1602 1.3979-1.7466 2.2257-0.93362l13.206 12.971 4.25-4.288c0.5088-0.51331 1.3374-0.517 1.8507-0.008 0.5133 0.50876 0.517 1.3374 0.008 1.8507l-4.2416 4.2794 3.2476 3.1897c2.2318 2.3758 2.6214 5.7315 1.1616 8.4012-1.5321 2.802-4.6998 4.185-8.4084 3.3808-2.717-0.7262-4.4766-2.7417-4.927-5.2944-0.4224-2.3935 0.3794-4.9177 2.1687-6.5775l3.0477-3.0749-10.972-10.776v18.024zm-1.2268 5.5202c0.76789 0 1.3904-0.6226 1.3904-1.3905s-0.62251-1.3904-1.3904-1.3904c-0.76796 0-1.3905 0.6225-1.3905 1.3904s0.6225 1.3905 1.3905 1.3905zm10.99-7.83c-0.0143 0.0145-0.029 0.0286-0.044 0.0424-1.1354 1.0433-1.6577 2.6768-1.3859 4.2173 0.2762 1.5649 1.3045 2.7502 2.9358 3.1981 2.5764 0.5482 4.5629-0.3246 5.5258-2.0854 0.91871-1.6802 0.67771-3.7949-0.71921-5.2979l-3.236-3.179-3.076 3.104zm17.146-14.744c0.76781 0 1.3903-0.62253 1.3903-1.3904 0-0.76791-0.6225-1.3904-1.3903-1.3904-0.76801 0-1.3905 0.6225-1.3905 1.3904 0 0.76791 0.62251 1.3904 1.3905 1.3904z"/>
  </g>
 </g>
</svg>
