<?xml version="1.0" encoding="UTF-8" standalone="no"?>
<svg id="svg2" xmlns:rdf="http://www.w3.org/1999/02/22-rdf-syntax-ns#" xmlns="http://www.w3.org/2000/svg" viewBox="0 0 72 72" height="72" width="72" version="1.1" enable-background="new 0 0 342 342" xmlns:cc="http://creativecommons.org/ns#" xmlns:dc="http://purl.org/dc/elements/1.1/">
 <defs id="defs4">
  <linearGradient id="linearGradient-8" y2="54" gradientUnits="userSpaceOnUse" y1="-18" x2="-17" x1="55">
   <stop id="stop42" stop-color="#7B5FB8" offset="0"/>
   <stop id="stop44" stop-color="#64B9E1" offset="1"/>
  </linearGradient>
 </defs>
 <g id="e-icon-flower__logo-2">
  <g id="g20" transform="translate(17,18)">
   <circle id="e-icon-flower__logo-bg-2" cx="19" style="fill:url(#linearGradient-8)" r="36" cy="18"/>
   <path id="path113" style="fill:#ffffff" d="m20.385 10.399c-0.45968-0.0536-0.92209-0.0805-1.3849-0.0806-6.5758 0-11.905 5.3568-11.905 11.964 0 6.6071 5.3304 11.964 11.905 11.964 6.4869 0 11.762-5.2138 11.903-11.698 0.002-0.0337 0.002-0.0673 0.002-0.10098v-18.981c0.003-0.94232-0.75754-1.7091-1.6999-1.7131-0.45274 0.002-0.88631 0.18297-1.2053 0.50424-0.31901 0.32126-0.49733 0.7561-0.49573 1.2088v18.847c-0.0156 4.6992-3.8157 8.5065-8.5041 8.5065-4.698 0-8.5029-3.8229-8.5029-8.5365 0-4.7125 3.8048-8.5365 8.5029-8.5365 0.51213 0 1.0146 0.0445 1.5027 0.13224 0.32459 0.0577-0.52294 0.91123-2.5414 2.5594-0.66354 0.67114-0.66354 1.7512 0 2.4224 0.31769 0.32097 0.75055 0.50157 1.2022 0.50157 0.45161 0 0.88447-0.1806 1.2022-0.50157l5.4121-5.4518c0.333-0.3342 0.4989-0.77299 0.4989-1.2118 0-0.43758-0.1659-0.87637-0.4989-1.2106l-5.411-5.4506c-0.318-0.3214-0.751-0.5022-1.203-0.5022-0.45191 0-0.88502 0.18083-1.2028 0.50218-0.66354 0.67113-0.66354 1.7512 0 2.4224l2.4248 2.4428-0.001-0.001z"/>
  </g>
 </g>
</svg>
